<svg xmlns="http://www.w3.org/2000/svg" xmlns:xlink="http://www.w3.org/1999/xlink" width="600" zoomAndPan="magnify" viewBox="0 0 450 449.999984" height="600" preserveAspectRatio="xMidYMid meet" version="1.0"><defs><clipPath id="937fe0d360"><path d="M 100.589844 55 L 348 55 L 348 395.566406 L 100.589844 395.566406 Z M 100.589844 55 " clip-rule="nonzero"/></clipPath><clipPath id="cc8d97caee"><path d="M 100.589844 108 L 348 108 L 348 395.566406 L 100.589844 395.566406 Z M 100.589844 108 " clip-rule="nonzero"/></clipPath><clipPath id="8311e27a25"><path d="M 100.589844 55 L 343 55 L 343 394 L 100.589844 394 Z M 100.589844 55 " clip-rule="nonzero"/></clipPath></defs><g clip-path="url(#937fe0d360)"><path fill="#9450ff" d="M 244.710938 194.078125 L 238.390625 194.078125 C 238.382812 194.078125 238.375 194.074219 238.371094 194.074219 C 238.363281 194.074219 238.355469 194.078125 238.347656 194.078125 L 230.195312 194.078125 C 230.1875 194.078125 230.183594 194.074219 230.175781 194.074219 C 230.167969 194.074219 230.160156 194.078125 230.15625 194.078125 L 224.328125 194.078125 C 223.121094 194.078125 222.144531 195.054688 222.144531 196.261719 L 222.144531 216.828125 C 222.144531 218.035156 223.121094 219.011719 224.328125 219.011719 L 244.71875 219.011719 C 245.925781 219.011719 246.902344 218.035156 246.902344 216.828125 L 246.902344 196.261719 C 246.886719 195.0625 245.914062 194.078125 244.710938 194.078125 Z M 100.648438 224.429688 L 100.648438 252.3125 L 152.890625 252.3125 L 152.890625 392.609375 C 152.890625 394.234375 154.214844 395.5625 155.839844 395.5625 C 157.46875 395.5625 158.792969 394.234375 158.792969 392.609375 L 158.792969 252.304688 L 261.183594 252.304688 C 259.671875 266.113281 258.367188 279.289062 257.746094 288.683594 C 255.683594 319.804688 256.199219 357.109375 256.199219 357.109375 L 259.074219 357.109375 L 258.691406 357.109375 C 258.691406 357.109375 258.699219 365.859375 265.199219 367.855469 L 263.757812 379.371094 C 262.570312 379.390625 261.644531 379.410156 261.644531 379.410156 C 261.644531 379.410156 260.496094 383.839844 251.644531 385.8125 C 242.789062 387.78125 237.050781 388.433594 236.722656 390.238281 C 236.394531 392.046875 237.050781 393.851562 240.984375 393.851562 C 244.917969 393.851562 263.769531 393.851562 268.527344 393.851562 C 273.28125 393.851562 272.292969 388.605469 271.3125 385.324219 C 270.332031 382.042969 268.691406 379.417969 268.691406 379.417969 C 268.589844 379.382812 268.210938 379.363281 267.6875 379.355469 L 269.007812 368.21875 C 276.816406 367.519531 277.910156 358.414062 278.023438 357.109375 L 282.683594 357.109375 C 282.683594 357.109375 288.339844 320.835938 290.652344 297.683594 C 290.707031 297.113281 290.761719 296.558594 290.824219 296 L 290.824219 392.601562 C 290.824219 394.230469 292.148438 395.554688 293.777344 395.554688 C 295.402344 395.554688 296.726562 394.230469 296.726562 392.601562 L 296.726562 267.484375 C 297.875 274.144531 299.445312 282.886719 300.941406 289.972656 C 303.769531 303.347656 315.085938 357.632812 315.085938 357.632812 L 322.15625 357.632812 L 318.296875 357.761719 C 318.296875 357.761719 319.457031 375.128906 318.296875 378.21875 C 317.214844 381.101562 312.09375 384.828125 311.429688 385.304688 C 305.554688 388.867188 301.476562 389.964844 301.320312 392.554688 C 301.152344 395.175781 301.8125 395.425781 304.1875 395.425781 C 306.5625 395.425781 329.355469 395.425781 333.289062 395.425781 C 337.21875 395.425781 335.078125 385.359375 335.078125 385.359375 L 335.648438 357.640625 L 342.085938 357.640625 C 342.085938 357.640625 336.429688 298.726562 336.429688 282.777344 C 336.429688 276.0625 336.15625 264.019531 335.839844 252.320312 L 342.636719 252.320312 L 342.636719 219.1875 L 336.128906 219.1875 L 334.859375 203.835938 L 334.109375 194.808594 C 342.59375 195.0625 349.539062 190.179688 346.710938 177.828125 C 343.882812 165.480469 342.085938 159.046875 338.996094 145.671875 C 335.910156 132.296875 332.566406 129.722656 326.910156 123.804688 C 324.378906 121.152344 321.222656 117.886719 318.511719 115.078125 C 318.46875 114.914062 318.347656 114.769531 318.167969 114.71875 C 314.988281 111.4375 312.503906 108.875 312.503906 108.875 L 312.203125 109.398438 L 309.417969 105.601562 L 306.628906 107.542969 L 308.730469 106.082031 L 308.070312 98.46875 C 308.070312 98.46875 312.3125 95.960938 313.664062 88.242188 C 313.664062 88.242188 316.28125 87.742188 316.238281 83.285156 C 316.265625 83.484375 316.292969 83.671875 316.316406 83.878906 C 317.460938 85.683594 321.234375 85.105469 321.234375 85.105469 L 320.578125 83.546875 C 324.1875 86.003906 329.265625 83.300781 329.265625 83.300781 C 329.265625 83.300781 327.625 82.070312 326.148438 80.675781 C 324.675781 79.285156 325.984375 78.464844 324.839844 69.28125 C 323.699219 60.078125 318.125 54.339844 308.945312 55.320312 C 301.097656 56.15625 300.316406 61.96875 300.253906 63.640625 C 289.726562 62.769531 282.519531 70.117188 283.191406 79.324219 C 283.0625 80.800781 283.070312 82.085938 283.109375 82.964844 C 281.964844 84.363281 281.464844 86.402344 281.9375 88.46875 C 282.570312 91.210938 284.714844 93.160156 287.085938 93.367188 C 287.1875 93.414062 287.25 93.441406 287.25 93.441406 C 287.25 93.441406 290.914062 100 296.507812 100.582031 L 295.84375 104 L 295.765625 104.378906 L 295.367188 106.417969 L 300.558594 111.773438 L 294.578125 105.601562 L 291.703125 110.058594 L 291.683594 109.652344 C 291.683594 109.652344 278.320312 116.773438 272.316406 125.480469 L 246.160156 125.066406 C 245.480469 125.054688 244.992188 125.726562 245.21875 126.371094 L 257.476562 161.136719 C 257.566406 161.390625 257.757812 161.574219 257.992188 161.683594 C 256.96875 165.042969 256.160156 168.042969 255.683594 170.371094 C 253.625 180.402344 265.199219 182.976562 265.199219 182.976562 L 260.550781 219.195312 L 131.628906 219.195312 L 131.628906 205.09375 L 131.023438 205.09375 L 131.023438 185.40625 L 152.894531 185.40625 C 153.773438 185.613281 154.679688 185.738281 155.621094 185.738281 C 160.109375 185.738281 164.015625 183.230469 166.003906 179.542969 C 167.027344 177.800781 167.617188 175.773438 167.617188 173.605469 C 167.617188 172.882812 167.542969 172.183594 167.417969 171.503906 L 167.417969 154.941406 L 173.339844 157.648438 C 175.40625 158.589844 177.601562 158.875 179.703125 158.617188 L 178.96875 160.414062 C 178.667969 161.164062 179.011719 162.015625 179.75 162.34375 L 190.253906 166.972656 C 191.007812 167.300781 191.886719 166.964844 192.214844 166.210938 L 192.804688 164.878906 C 192.910156 165.503906 193.304688 166.058594 193.929688 166.332031 L 201.644531 169.699219 C 202.597656 170.109375 203.703125 169.699219 204.144531 168.757812 L 208.617188 159.226562 L 204.457031 168.324219 C 204.402344 168.433594 204.402344 168.566406 204.445312 168.679688 L 208.605469 179.90625 C 208.644531 180.023438 208.742188 180.121094 208.859375 180.175781 L 216.75 183.664062 C 216.875 183.71875 217.019531 183.71875 217.140625 183.65625 L 227.300781 178.824219 C 227.636719 178.664062 227.664062 178.199219 227.347656 178 L 221.972656 174.640625 C 221.851562 174.566406 221.699219 174.546875 221.5625 174.601562 L 215.605469 176.804688 C 215.359375 176.894531 215.082031 176.761719 214.992188 176.515625 L 212.769531 170.027344 C 212.730469 169.917969 212.734375 169.792969 212.785156 169.683594 L 215.40625 163.738281 C 215.46875 163.605469 215.585938 163.503906 215.722656 163.46875 L 222.332031 161.847656 C 222.570312 161.789062 222.816406 161.933594 222.894531 162.164062 L 224.820312 168.332031 C 224.863281 168.453125 224.945312 168.558594 225.0625 168.613281 L 231.117188 171.558594 C 231.472656 171.730469 231.871094 171.414062 231.78125 171.03125 L 228.664062 157.722656 C 228.632812 157.566406 228.515625 157.433594 228.355469 157.386719 L 221.910156 155.210938 C 221.824219 155.183594 221.726562 155.175781 221.636719 155.203125 L 209.105469 158.554688 C 208.96875 158.589844 208.859375 158.683594 208.796875 158.816406 L 208.75 158.925781 C 209.1875 157.949219 208.742188 156.796875 207.753906 156.378906 L 199.804688 153 C 199.179688 152.730469 198.496094 152.828125 197.972656 153.183594 L 201.898438 144.304688 C 202.234375 143.542969 201.878906 142.644531 201.109375 142.328125 L 189.839844 137.652344 C 189.078125 137.335938 188.199219 137.699219 187.890625 138.46875 L 187.453125 139.546875 C 186.332031 138.148438 184.886719 136.964844 183.140625 136.171875 L 160.617188 125.878906 C 157.898438 124.636719 154.957031 124.523438 152.300781 125.328125 C 152.140625 125.375 151.984375 125.425781 151.832031 125.480469 C 151.6875 125.527344 151.550781 125.582031 151.40625 125.636719 C 151.117188 125.746094 150.835938 125.871094 150.5625 126 C 150.554688 126.007812 150.550781 126.007812 150.535156 126.015625 C 146.5625 127.917969 143.808594 131.960938 143.808594 136.664062 L 143.808594 161.808594 L 118.78125 161.808594 C 112.257812 161.808594 106.976562 167.09375 106.976562 173.617188 C 106.976562 173.726562 106.988281 173.839844 106.988281 173.949219 C 106.988281 174.058594 106.976562 174.167969 106.976562 174.277344 L 106.976562 205.113281 L 106.371094 205.113281 L 106.371094 219.214844 L 100.960938 219.214844 L 100.960938 224.460938 L 100.648438 224.460938 Z M 320.808594 391.140625 C 320.808594 391.140625 320.660156 389.726562 320.101562 388.144531 C 320.804688 389.609375 320.808594 391.140625 320.808594 391.140625 Z M 320.808594 391.140625 " fill-opacity="1" fill-rule="nonzero"/></g><g clip-path="url(#cc8d97caee)"><path fill="#ffffff" d="M 301.320312 392.546875 C 301.152344 395.167969 301.8125 395.417969 304.1875 395.417969 C 306.5625 395.417969 329.355469 395.417969 333.289062 395.417969 C 337.21875 395.417969 335.078125 385.351562 335.078125 385.351562 L 320.808594 391.140625 C 320.808594 391.140625 319.683594 380.25 311.65625 385.164062 C 305.65625 388.839844 301.484375 389.925781 301.320312 392.546875 Z M 100.648438 252.3125 L 152.890625 252.3125 L 152.890625 392.601562 C 152.890625 394.230469 154.214844 395.554688 155.839844 395.554688 C 157.46875 395.554688 158.792969 394.230469 158.792969 392.601562 L 158.792969 252.3125 L 290.824219 252.3125 L 290.824219 392.601562 C 290.824219 394.230469 292.148438 395.554688 293.777344 395.554688 C 295.402344 395.554688 296.726562 394.230469 296.726562 392.601562 L 296.726562 252.3125 L 342.636719 252.3125 L 342.636719 224.429688 L 336.566406 224.429688 L 334.117188 194.792969 C 342.601562 195.046875 349.546875 190.164062 346.71875 177.8125 C 343.890625 165.46875 342.09375 159.035156 339.003906 145.660156 C 335.914062 132.285156 332.574219 129.707031 326.917969 123.789062 C 321.261719 117.871094 312.519531 108.871094 312.519531 108.871094 L 293.234375 142.054688 L 291.691406 109.640625 C 291.691406 109.640625 275.746094 118.125 270.859375 127.902344 C 265.972656 137.679688 257.746094 160.320312 255.683594 170.351562 C 253.625 180.382812 265.199219 182.957031 265.199219 182.957031 L 259.878906 224.429688 L 100.648438 224.429688 Z M 294.523438 224.429688 L 278.910156 224.429688 C 279.890625 222.394531 280.597656 220.121094 281.140625 217.945312 C 282.683594 211.773438 288.085938 187.84375 288.085938 187.84375 C 288.085938 187.84375 291.429688 212.796875 292.457031 218.199219 C 292.816406 220.066406 293.453125 222.300781 294.523438 224.429688 Z M 294.523438 224.429688 " fill-opacity="1" fill-rule="nonzero"/></g><path fill="#661ae6" d="M 245.226562 126.359375 L 257.484375 161.121094 C 257.621094 161.511719 257.992188 161.773438 258.402344 161.773438 L 305.746094 161.773438 C 306.398438 161.773438 306.871094 161.140625 306.6875 160.515625 L 296.605469 126.542969 C 296.480469 126.132812 296.109375 125.851562 295.683594 125.84375 L 246.167969 125.054688 C 245.480469 125.039062 245 125.710938 245.226562 126.359375 Z M 106.988281 173.578125 C 106.988281 167.054688 112.273438 161.765625 118.792969 161.765625 L 143.824219 161.765625 L 143.824219 136.625 C 143.824219 131.917969 146.574219 127.875 150.550781 125.972656 C 150.554688 125.96875 150.5625 125.96875 150.578125 125.960938 C 150.851562 125.828125 151.132812 125.707031 151.421875 125.597656 C 151.566406 125.542969 151.703125 125.492188 151.847656 125.4375 C 152.003906 125.382812 152.15625 125.335938 152.3125 125.285156 C 154.96875 124.484375 157.90625 124.59375 160.632812 125.835938 L 183.15625 136.128906 C 189.085938 138.839844 191.699219 145.84375 188.988281 151.777344 C 186.277344 157.710938 179.277344 160.324219 173.347656 157.613281 L 167.425781 154.90625 L 167.425781 171.46875 C 167.550781 172.148438 167.625 172.847656 167.625 173.570312 C 167.625 175.738281 167.027344 177.765625 166.011719 179.507812 C 164.015625 183.195312 160.109375 185.703125 155.628906 185.703125 C 154.6875 185.703125 153.78125 185.578125 152.902344 185.375 L 131.03125 185.375 L 131.03125 219.050781 L 106.980469 219.050781 L 106.980469 174.222656 C 106.980469 174.113281 106.996094 174.003906 106.996094 173.894531 C 107.003906 173.796875 106.988281 173.695312 106.988281 173.578125 Z M 197.3125 153.945312 C 197.738281 152.992188 198.851562 152.550781 199.8125 152.957031 L 207.761719 156.335938 C 208.761719 156.761719 209.207031 157.9375 208.75 158.917969 L 204.144531 168.722656 C 203.703125 169.664062 202.59375 170.082031 201.644531 169.664062 L 193.929688 166.300781 C 192.957031 165.875 192.511719 164.734375 192.941406 163.757812 Z M 197.3125 153.945312 " fill-opacity="1" fill-rule="nonzero"/><path fill="#ff65cf" d="M 285.710938 141.863281 C 287.257812 142.246094 289.183594 142.632812 289.183594 142.632812 C 289.183594 142.632812 287.449219 143.792969 287.449219 145.136719 C 287.449219 146.484375 287.449219 147.644531 287.832031 150.347656 C 288.21875 153.046875 289.570312 157.683594 290.335938 157.683594 C 291.105469 157.683594 292.652344 155.945312 292.652344 155.945312 C 292.652344 155.945312 294.964844 160.378906 297.085938 161.539062 C 299.203125 162.699219 304.992188 162.308594 307.304688 163.085938 C 309.617188 163.855469 310.96875 165.984375 310.96875 165.984375 L 318.875 155.953125 C 318.875 155.953125 309.617188 149.394531 305.375 146.496094 C 301.132812 143.605469 299.589844 141.675781 296.117188 140.902344 C 292.644531 140.132812 287.824219 140.324219 286.28125 139.941406 C 284.742188 139.546875 284.167969 141.476562 285.710938 141.863281 Z M 283.199219 84.171875 C 283.199219 84.171875 281.078125 66.808594 294.964844 66.039062 C 308.855469 65.261719 310.390625 76.070312 310.390625 76.070312 C 310.390625 76.070312 315.601562 76.453125 316.175781 82.050781 C 316.753906 87.648438 313.671875 88.222656 313.671875 88.222656 C 312.320312 95.941406 308.078125 98.445312 308.078125 98.445312 L 308.738281 106.0625 L 300.558594 111.753906 L 295.367188 106.398438 L 296.507812 100.5625 C 290.914062 99.984375 287.25 93.421875 287.25 93.421875 C 287.25 93.421875 282.816406 91.492188 282.230469 88.792969 C 281.664062 86.101562 283.199219 84.171875 283.199219 84.171875 Z M 318.296875 378.210938 C 319.457031 375.121094 318.296875 357.757812 318.296875 357.757812 L 335.65625 357.179688 L 335.078125 385.351562 L 320.808594 391.140625 C 320.808594 391.140625 320.808594 386.703125 317.335938 385.734375 C 313.863281 384.773438 311.359375 385.351562 311.359375 385.351562 C 311.359375 385.351562 317.144531 381.300781 318.296875 378.210938 Z M 318.296875 378.210938 " fill-opacity="1" fill-rule="nonzero"/><g clip-path="url(#8311e27a25)"><path fill="#242933" d="M 293.28125 144.730469 C 293.554688 144.773438 293.808594 144.589844 293.851562 144.320312 C 293.894531 144.050781 293.707031 143.792969 293.441406 143.75 C 293.300781 143.730469 290.050781 143.222656 288.011719 144.175781 C 287.765625 144.292969 287.652344 144.589844 287.769531 144.835938 C 287.851562 145.011719 288.03125 145.125 288.222656 145.125 C 288.292969 145.125 288.367188 145.109375 288.4375 145.074219 C 290.195312 144.25 293.246094 144.726562 293.28125 144.730469 Z M 293.976562 146.640625 C 293.925781 146.910156 293.671875 147.09375 293.398438 147.046875 C 293.371094 147.039062 290.578125 146.578125 288.574219 147.636719 C 288.5 147.675781 288.421875 147.691406 288.339844 147.691406 C 288.160156 147.691406 287.992188 147.59375 287.902344 147.429688 C 287.769531 147.191406 287.867188 146.886719 288.105469 146.757812 C 290.421875 145.535156 293.441406 146.042969 293.570312 146.0625 C 293.84375 146.113281 294.023438 146.375 293.976562 146.640625 Z M 288.613281 150.3125 C 288.53125 150.371094 288.4375 150.398438 288.347656 150.398438 C 288.183594 150.398438 288.023438 150.3125 287.929688 150.171875 C 287.777344 149.945312 287.847656 149.632812 288.074219 149.484375 C 290.8125 147.707031 294.023438 148.742188 294.160156 148.78125 C 294.421875 148.871094 294.558594 149.148438 294.476562 149.40625 C 294.386719 149.667969 294.105469 149.804688 293.851562 149.722656 C 293.816406 149.71875 290.949219 148.804688 288.613281 150.3125 Z M 292.699219 152.46875 L 292.699219 155.046875 C 292.699219 155.320312 292.480469 155.539062 292.203125 155.539062 C 291.929688 155.539062 291.710938 155.320312 291.710938 155.046875 L 291.710938 152.46875 C 291.710938 152.195312 291.929688 151.976562 292.203125 151.976562 C 292.480469 151.976562 292.699219 152.195312 292.699219 152.46875 Z M 298.183594 84.171875 C 298.71875 84.171875 299.144531 84.605469 299.144531 85.132812 C 299.144531 85.667969 298.710938 86.09375 298.183594 86.09375 C 297.648438 86.09375 297.222656 85.664062 297.222656 85.132812 C 297.214844 84.605469 297.648438 84.171875 298.183594 84.171875 Z M 288.664062 86.101562 C 289.199219 86.101562 289.625 86.535156 289.625 87.0625 C 289.625 87.597656 289.191406 88.023438 288.664062 88.023438 C 288.128906 88.023438 287.703125 87.589844 287.703125 87.0625 C 287.703125 86.535156 288.132812 86.101562 288.664062 86.101562 Z M 281.945312 88.46875 C 282.609375 91.375 284.984375 93.386719 287.503906 93.386719 C 287.851562 93.386719 288.210938 93.34375 288.566406 93.261719 C 289.828125 92.976562 290.90625 92.183594 291.640625 91.039062 L 291.640625 91.246094 C 291.640625 91.382812 291.703125 91.519531 291.804688 91.613281 C 291.894531 91.699219 292.019531 91.746094 292.136719 91.746094 C 292.15625 91.746094 292.171875 91.746094 292.191406 91.746094 L 295.304688 91.417969 C 295.582031 91.386719 295.78125 91.140625 295.746094 90.875 C 295.71875 90.597656 295.464844 90.398438 295.203125 90.433594 L 292.636719 90.703125 L 292.636719 88.628906 C 292.636719 88.539062 292.609375 88.464844 292.566406 88.386719 C 292.652344 87.625 292.609375 86.84375 292.429688 86.058594 C 292.355469 85.738281 292.253906 85.421875 292.136719 85.125 L 294.359375 84.632812 C 294.378906 84.757812 294.386719 84.878906 294.414062 85.003906 C 295.078125 87.90625 297.453125 89.917969 299.972656 89.917969 C 300.324219 89.917969 300.679688 89.878906 301.039062 89.796875 C 303.925781 89.128906 305.664062 85.894531 304.902344 82.585938 C 304.140625 79.277344 301.167969 77.128906 298.277344 77.792969 C 296.863281 78.117188 295.683594 79.058594 294.957031 80.4375 C 294.449219 81.40625 294.214844 82.503906 294.25 83.636719 L 291.710938 84.199219 C 290.460938 81.996094 288.113281 80.730469 285.808594 81.269531 C 282.917969 81.925781 281.183594 85.160156 281.945312 88.46875 Z M 295.835938 80.890625 C 296.425781 79.769531 297.371094 79.007812 298.503906 78.753906 C 298.785156 78.691406 299.066406 78.660156 299.347656 78.660156 C 301.421875 78.660156 303.378906 80.363281 303.941406 82.800781 C 304.578125 85.574219 303.179688 88.269531 300.816406 88.8125 C 298.457031 89.355469 296.019531 87.542969 295.382812 84.761719 C 295.066406 83.417969 295.230469 82.035156 295.835938 80.890625 Z M 286.027344 82.230469 C 286.308594 82.167969 286.589844 82.132812 286.871094 82.132812 C 288.945312 82.132812 290.898438 83.835938 291.464844 86.273438 C 291.773438 87.632812 291.613281 89.007812 291.011719 90.152344 C 290.421875 91.273438 289.472656 92.035156 288.339844 92.289062 C 285.980469 92.832031 283.542969 91.019531 282.90625 88.242188 C 282.273438 85.46875 283.671875 82.773438 286.027344 82.230469 Z M 295.230469 94.339844 C 295.183594 94.355469 295.136719 94.363281 295.085938 94.363281 C 294.875 94.363281 294.675781 94.222656 294.613281 94.003906 C 294.539062 93.742188 294.683594 93.460938 294.949219 93.386719 L 298.230469 92.40625 C 298.492188 92.324219 298.773438 92.472656 298.847656 92.742188 C 298.921875 93.003906 298.777344 93.285156 298.511719 93.359375 Z M 296.5 100.601562 C 300.441406 100.601562 303.777344 99.441406 303.777344 99.441406 C 300.671875 103.320312 297.496094 104.199219 295.765625 104.367188 Z M 293.78125 79.625 C 293.6875 79.769531 293.527344 79.847656 293.371094 79.847656 C 293.273438 79.847656 293.179688 79.820312 293.097656 79.765625 C 292.871094 79.613281 292.808594 79.304688 292.964844 79.078125 C 295.164062 75.828125 299.09375 76.296875 299.257812 76.324219 C 299.535156 76.359375 299.71875 76.605469 299.683594 76.878906 C 299.652344 77.15625 299.398438 77.347656 299.128906 77.3125 C 298.984375 77.277344 295.628906 76.894531 293.78125 79.625 Z M 288.320312 79.585938 C 288.210938 79.558594 285.683594 78.898438 284.1875 81.109375 C 284.09375 81.253906 283.933594 81.328125 283.777344 81.328125 C 283.679688 81.328125 283.585938 81.300781 283.5 81.246094 C 283.273438 81.097656 283.214844 80.789062 283.371094 80.5625 C 284.886719 78.316406 287.449219 78.324219 288.585938 78.636719 C 288.847656 78.714844 289.007812 78.980469 288.929688 79.25 C 288.855469 79.496094 288.582031 79.65625 288.320312 79.585938 Z M 320.582031 83.535156 L 321.242188 85.09375 C 321.242188 85.09375 317.472656 85.667969 316.320312 83.863281 C 315.664062 77.792969 313.453125 76.730469 310.417969 76.566406 C 310.40625 76.566406 310.390625 76.558594 310.386719 76.558594 C 310.28125 78.273438 309.109375 80.25 309.109375 80.25 L 305.011719 77.050781 C 296.570312 75.90625 292.628906 69.101562 292.628906 69.101562 L 283.199219 79.515625 C 282.410156 70.21875 289.652344 62.761719 300.246094 63.640625 C 300.316406 61.96875 301.097656 56.15625 308.945312 55.320312 C 318.125 54.339844 323.699219 60.078125 324.84375 69.257812 C 325.992188 78.445312 324.679688 79.261719 326.15625 80.65625 C 327.632812 82.050781 329.273438 83.28125 329.273438 83.28125 C 329.273438 83.28125 324.195312 85.992188 320.582031 83.535156 Z M 254.320312 130.5 C 254.320312 131.101562 253.679688 131.589844 252.898438 131.589844 C 252.117188 131.589844 251.476562 131.101562 251.476562 130.5 C 251.476562 129.894531 252.117188 129.40625 252.898438 129.40625 C 253.6875 129.398438 254.320312 129.894531 254.320312 130.5 Z M 295.09375 127.503906 C 295.085938 127.773438 294.867188 127.992188 294.597656 127.992188 C 294.59375 127.992188 294.59375 127.992188 294.585938 127.992188 L 247.367188 126.84375 C 247.09375 126.839844 246.878906 126.613281 246.878906 126.335938 C 246.886719 126.0625 247.066406 125.855469 247.386719 125.851562 L 294.605469 126.996094 C 294.886719 126.996094 295.101562 127.230469 295.09375 127.503906 Z M 340.664062 170.796875 C 340.570312 170.796875 340.472656 170.769531 340.382812 170.707031 L 319.066406 156.109375 C 318.839844 155.953125 318.785156 155.640625 318.9375 155.414062 C 319.085938 155.1875 319.402344 155.132812 319.628906 155.285156 L 340.945312 169.890625 C 341.171875 170.046875 341.226562 170.355469 341.078125 170.582031 C 340.980469 170.71875 340.828125 170.796875 340.664062 170.796875 Z M 334.117188 194.792969 L 334.867188 203.824219 L 318.703125 188.179688 L 303.960938 176.089844 C 303.769531 175.933594 303.722656 175.652344 303.859375 175.4375 L 309.925781 165.921875 C 310.070312 165.6875 310.378906 165.617188 310.609375 165.769531 C 310.84375 165.914062 310.914062 166.222656 310.761719 166.457031 L 304.933594 175.59375 L 321.277344 189 C 325.324219 191.691406 330.300781 194.445312 334.117188 194.792969 Z M 275.273438 177.386719 C 275.285156 177.332031 275.3125 177.277344 275.347656 177.222656 L 286.496094 161.964844 C 286.660156 161.746094 286.96875 161.699219 287.1875 161.855469 C 287.40625 162.019531 287.453125 162.332031 287.296875 162.550781 L 278.753906 174.234375 C 273.480469 185.34375 267.113281 189.375 264.210938 190.695312 L 265.203125 182.949219 C 268.816406 183.285156 272.460938 180.429688 275.273438 177.386719 Z M 288.203125 189.65625 C 288.195312 189.65625 288.195312 189.65625 288.1875 189.65625 C 287.914062 189.652344 287.703125 189.417969 287.707031 189.144531 L 288.527344 162.074219 C 288.53125 161.800781 288.753906 161.601562 289.039062 161.59375 C 289.316406 161.601562 289.527344 161.835938 289.519531 162.109375 L 288.703125 189.175781 C 288.691406 189.445312 288.472656 189.65625 288.203125 189.65625 Z M 301.484375 141.4375 C 301.234375 141.4375 301.023438 141.25 300.988281 141.003906 C 300.953125 140.730469 301.148438 140.480469 301.421875 140.449219 C 304.566406 140.054688 309.492188 139.382812 310.179688 139.15625 C 310.328125 139.109375 310.460938 139.066406 310.589844 139.027344 C 311.285156 138.8125 311.46875 138.757812 311.667969 138.160156 C 311.921875 137.398438 315.636719 122.71875 317.558594 115.070312 C 317.625 114.800781 317.894531 114.644531 318.160156 114.714844 C 318.429688 114.78125 318.585938 115.050781 318.519531 115.316406 C 318.292969 116.222656 312.9375 137.488281 312.601562 138.484375 C 312.238281 139.570312 311.632812 139.753906 310.871094 139.988281 L 310.480469 140.109375 C 309.480469 140.449219 302.339844 141.347656 301.53125 141.441406 C 301.523438 141.4375 301.503906 141.4375 301.484375 141.4375 Z M 282.464844 125.199219 C 282.410156 125.199219 282.355469 125.191406 282.300781 125.171875 C 282.039062 125.082031 281.902344 124.800781 281.992188 124.539062 L 285.761719 113.550781 C 285.847656 113.292969 286.128906 113.15625 286.390625 113.242188 C 286.652344 113.332031 286.789062 113.613281 286.699219 113.875 L 282.933594 124.863281 C 282.863281 125.066406 282.671875 125.199219 282.464844 125.199219 Z M 306.15625 117.605469 L 302.058594 111.699219 C 301.902344 111.472656 301.957031 111.164062 302.183594 111.003906 C 302.410156 110.847656 302.71875 110.902344 302.875 111.128906 L 306.972656 117.035156 C 307.132812 117.261719 307.078125 117.570312 306.851562 117.726562 C 306.761719 117.789062 306.664062 117.816406 306.570312 117.816406 C 306.410156 117.816406 306.253906 117.742188 306.15625 117.605469 Z M 293.351562 117.789062 C 293.253906 117.917969 293.101562 117.980469 292.960938 117.980469 C 292.855469 117.980469 292.746094 117.945312 292.65625 117.878906 C 292.4375 117.714844 292.398438 117.398438 292.566406 117.183594 L 297.488281 110.785156 C 297.660156 110.566406 297.96875 110.523438 298.183594 110.695312 C 298.402344 110.859375 298.441406 111.175781 298.269531 111.390625 Z M 251.644531 385.824219 C 260.496094 383.855469 261.644531 379.425781 261.644531 379.425781 C 261.644531 379.425781 262.574219 379.40625 263.757812 379.382812 L 265.199219 367.871094 C 258.699219 365.871094 258.691406 357.125 258.691406 357.125 L 278.039062 356.960938 C 278.039062 356.960938 277.429688 367.476562 269.007812 368.234375 L 267.6875 379.371094 C 268.210938 379.378906 268.589844 379.398438 268.691406 379.433594 C 268.691406 379.433594 270.332031 382.054688 271.3125 385.335938 C 272.292969 388.621094 273.28125 393.863281 268.527344 393.863281 C 263.769531 393.863281 244.917969 393.863281 240.984375 393.863281 C 237.050781 393.863281 236.394531 392.058594 236.722656 390.253906 C 237.050781 388.449219 242.789062 387.796875 251.644531 385.824219 Z M 314.761719 346.949219 L 329.148438 346.949219 C 328.914062 346.929688 328.722656 346.75 328.703125 346.507812 L 320.027344 253.085938 C 320 252.8125 320.207031 252.574219 320.472656 252.546875 C 320.753906 252.523438 320.988281 252.722656 321.015625 252.992188 L 329.683594 346.414062 C 329.710938 346.679688 329.519531 346.90625 329.257812 346.949219 L 340.34375 346.949219 C 340.617188 346.949219 340.835938 347.167969 340.835938 347.441406 C 340.835938 347.71875 340.617188 347.9375 340.34375 347.9375 L 314.761719 347.9375 C 314.488281 347.9375 314.269531 347.71875 314.269531 347.441406 C 314.269531 347.167969 314.488281 346.949219 314.761719 346.949219 Z M 256.558594 346.785156 C 256.558594 346.507812 256.777344 346.289062 257.050781 346.289062 L 272 346.289062 C 271.972656 346.214844 271.957031 346.136719 271.972656 346.0625 L 285.085938 254.535156 C 285.128906 254.261719 285.382812 254.082031 285.648438 254.117188 C 285.925781 254.160156 286.109375 254.40625 286.070312 254.679688 L 272.953125 346.207031 C 272.945312 346.242188 272.933594 346.269531 272.925781 346.296875 L 282.628906 346.296875 C 282.90625 346.296875 283.125 346.515625 283.125 346.789062 C 283.125 347.066406 282.90625 347.285156 282.628906 347.285156 L 257.050781 347.285156 C 256.785156 347.285156 256.558594 347.058594 256.558594 346.785156 Z M 106.382812 219.175781 L 106.382812 205.070312 L 131.632812 205.070312 L 131.632812 219.175781 L 342.636719 219.175781 L 342.636719 224.75 L 100.976562 224.75 L 100.976562 219.175781 Z M 192.222656 166.183594 C 191.890625 166.929688 191.015625 167.273438 190.257812 166.945312 L 179.757812 162.316406 C 179.015625 161.992188 178.675781 161.136719 178.976562 160.386719 L 187.90625 138.4375 C 188.214844 137.667969 189.09375 137.304688 189.855469 137.617188 L 201.125 142.292969 C 201.898438 142.617188 202.257812 143.511719 201.914062 144.273438 Z M 231.128906 171.539062 L 225.074219 168.59375 C 224.960938 168.539062 224.871094 168.433594 224.835938 168.3125 L 222.90625 162.144531 C 222.832031 161.90625 222.585938 161.765625 222.34375 161.828125 L 215.734375 163.449219 C 215.589844 163.484375 215.472656 163.578125 215.417969 163.71875 L 212.796875 169.664062 C 212.75 169.773438 212.742188 169.898438 212.785156 170.007812 L 215.007812 176.496094 C 215.089844 176.742188 215.363281 176.871094 215.617188 176.785156 L 221.574219 174.578125 C 221.710938 174.53125 221.863281 174.546875 221.988281 174.621094 L 227.359375 177.976562 C 227.675781 178.175781 227.648438 178.644531 227.3125 178.800781 L 217.15625 183.636719 C 217.03125 183.699219 216.886719 183.699219 216.765625 183.644531 L 208.871094 180.15625 C 208.753906 180.105469 208.667969 180.011719 208.617188 179.886719 L 204.457031 168.660156 C 204.417969 168.542969 204.417969 168.414062 204.472656 168.304688 L 208.816406 158.789062 C 208.878906 158.65625 208.988281 158.566406 209.125 158.527344 L 221.65625 155.175781 C 221.746094 155.15625 221.84375 155.15625 221.933594 155.183594 L 228.378906 157.359375 C 228.527344 157.414062 228.644531 157.539062 228.6875 157.695312 L 231.800781 171.003906 C 231.882812 171.394531 231.484375 171.710938 231.128906 171.539062 Z M 167.378906 155.046875 C 167.378906 155.046875 167.398438 155.113281 167.433594 155.238281 L 167.433594 166.992188 C 161.796875 159.507812 153.28125 147.828125 153.28125 147.828125 Z M 131.304688 174.566406 L 136.402344 185.394531 L 131.304688 185.394531 Z M 238.863281 209.660156 L 238.863281 202.449219 L 246.070312 202.449219 C 246.34375 202.449219 246.5625 202.230469 246.5625 201.953125 C 246.5625 201.679688 246.34375 201.460938 246.070312 201.460938 L 238.863281 201.460938 L 238.863281 194.574219 C 238.863281 194.300781 238.644531 194.078125 238.371094 194.078125 C 238.09375 194.078125 237.875 194.300781 237.875 194.574219 L 237.875 201.460938 L 230.667969 201.460938 L 230.667969 194.574219 C 230.667969 194.300781 230.449219 194.078125 230.175781 194.078125 C 229.902344 194.078125 229.679688 194.300781 229.679688 194.574219 L 229.679688 201.460938 L 222.960938 201.460938 C 222.6875 201.460938 222.46875 201.679688 222.46875 201.953125 C 222.46875 202.230469 222.6875 202.449219 222.960938 202.449219 L 229.679688 202.449219 L 229.679688 209.660156 L 222.960938 209.660156 C 222.6875 209.660156 222.46875 209.878906 222.46875 210.152344 C 222.46875 210.429688 222.6875 210.648438 222.960938 210.648438 L 229.679688 210.648438 L 229.679688 217.855469 C 229.679688 218.132812 229.902344 218.351562 230.175781 218.351562 C 230.449219 218.351562 230.667969 218.132812 230.667969 217.855469 L 230.667969 210.648438 L 237.875 210.648438 L 237.875 217.855469 C 237.875 218.132812 238.09375 218.351562 238.371094 218.351562 C 238.644531 218.351562 238.863281 218.132812 238.863281 217.855469 L 238.863281 210.648438 L 246.070312 210.648438 C 246.34375 210.648438 246.5625 210.429688 246.5625 210.152344 C 246.5625 209.878906 246.34375 209.660156 246.070312 209.660156 Z M 237.867188 209.660156 L 230.664062 209.660156 L 230.664062 202.449219 L 237.867188 202.449219 Z M 158.792969 262.589844 L 152.890625 259.417969 L 152.890625 252.523438 L 158.792969 252.523438 Z M 296.726562 262.445312 L 290.824219 259.320312 L 290.824219 252.3125 L 296.726562 252.3125 Z M 296.726562 262.445312 " fill-opacity="1" fill-rule="nonzero"/></g></svg>