<svg xmlns="http://www.w3.org/2000/svg" xmlns:xlink="http://www.w3.org/1999/xlink" width="600" zoomAndPan="magnify" viewBox="0 0 450 449.999984" height="600" preserveAspectRatio="xMidYMid meet" version="1.0"><defs><clipPath id="834a9bddb8"><path d="M 86 62 L 380.851562 62 L 380.851562 415.535156 L 86 415.535156 Z M 86 62 " clip-rule="nonzero"/></clipPath><clipPath id="1b6bc47ccb"><path d="M 144 73 L 241 73 L 241 415.535156 L 144 415.535156 Z M 144 73 " clip-rule="nonzero"/></clipPath><clipPath id="7262ff64bd"><path d="M 86 95 L 380.851562 95 L 380.851562 415.535156 L 86 415.535156 Z M 86 95 " clip-rule="nonzero"/></clipPath></defs><g clip-path="url(#834a9bddb8)"><path fill="#242933" d="M 87.996094 289.566406 C 85 282.652344 87.464844 280.769531 95.183594 280.484375 C 95.066406 280.140625 94.953125 279.785156 94.851562 279.421875 C 92.199219 269.324219 94.734375 253.507812 96.820312 243.734375 C 96.871094 243.511719 96.914062 243.292969 96.964844 243.078125 C 97 242.914062 97.039062 242.75 97.074219 242.582031 C 97.125 242.359375 97.167969 242.144531 97.21875 241.929688 C 97.246094 241.792969 97.273438 241.664062 97.304688 241.535156 C 97.390625 241.144531 97.476562 240.765625 97.5625 240.40625 C 97.585938 240.296875 97.613281 240.191406 97.632812 240.089844 C 97.683594 239.882812 97.726562 239.6875 97.777344 239.492188 C 97.800781 239.398438 97.820312 239.304688 97.84375 239.210938 C 97.9375 238.824219 98.023438 238.457031 98.109375 238.121094 C 98.117188 238.089844 98.125 238.054688 98.128906 238.027344 C 98.175781 237.847656 98.21875 237.683594 98.261719 237.515625 C 98.273438 237.445312 98.296875 237.378906 98.3125 237.316406 C 98.433594 236.832031 98.535156 236.429688 98.628906 236.09375 C 98.640625 236.035156 98.65625 235.984375 98.671875 235.9375 C 98.691406 235.84375 98.71875 235.757812 98.734375 235.683594 C 98.757812 235.613281 98.769531 235.5625 98.785156 235.496094 C 98.808594 235.417969 98.820312 235.351562 98.84375 235.296875 C 98.855469 235.238281 98.871094 235.1875 98.886719 235.144531 C 98.894531 235.117188 98.894531 235.109375 98.898438 235.085938 C 98.90625 235.058594 98.914062 235.039062 98.914062 235.039062 L 95.613281 235.039062 C 95.613281 235.039062 108.558594 181.261719 112.875 163.761719 C 117.1875 146.265625 129.882812 135.355469 136.226562 129.519531 C 142.570312 123.683594 142.570312 123.683594 142.570312 123.683594 L 144.972656 124.339844 C 145.703125 123.65625 150.207031 119.265625 154.566406 110.554688 C 154.578125 110.527344 154.59375 110.496094 154.609375 110.460938 C 150.402344 109.226562 151.222656 105.597656 146 103.640625 C 139.910156 101.355469 143.710938 89.0625 143.710938 89.0625 C 143.710938 89.0625 139.269531 91.597656 136.347656 89.3125 C 133.429688 87.027344 135.835938 84.75 130.636719 83.476562 C 125.429688 82.210938 127.464844 77.640625 128.351562 74.851562 C 129.234375 72.066406 127.085938 69.148438 129.242188 65.847656 C 131.402344 62.550781 134.953125 66.101562 138.125 63.824219 C 141.296875 61.535156 145.613281 61.535156 146.882812 64.453125 C 148.15625 67.371094 149.421875 67.625 151.960938 68.003906 C 154.5 68.386719 154.371094 73.207031 154.371094 73.207031 C 154.371094 73.207031 157.421875 66.109375 163.253906 66.738281 C 169.09375 67.371094 168.839844 71.5625 174.550781 70.417969 C 180.21875 69.285156 186.871094 74.148438 186.238281 80.164062 C 187.484375 81.472656 188.273438 82.792969 188.453125 83.921875 C 189.359375 89.722656 189.058594 94.824219 189.359375 97.101562 L 191.027344 92.90625 C 191.144531 92.609375 191.480469 92.46875 191.777344 92.582031 C 192.070312 92.695312 192.214844 93.035156 192.101562 93.328125 L 189.976562 98.667969 C 191.230469 100.542969 193.917969 102.691406 192.832031 104.085938 C 191.503906 105.796875 188.835938 105.230469 188.835938 105.230469 C 188.835938 105.230469 188.710938 106.421875 188.359375 108.011719 L 188.707031 108.019531 C 188.796875 107.832031 188.992188 107.695312 189.214844 107.695312 C 189.214844 107.695312 189.222656 107.695312 189.222656 107.695312 L 274.433594 108.652344 L 373.234375 95.210938 C 373.414062 95.191406 373.609375 95.253906 373.738281 95.390625 C 373.867188 95.527344 373.917969 95.722656 373.882812 95.902344 L 353.570312 190.511719 C 353.515625 190.777344 353.277344 190.964844 353.011719 190.964844 L 282.996094 190.964844 L 291.296875 213.945312 C 292.546875 217.417969 289.972656 221.074219 286.285156 221.074219 L 308.449219 221.074219 C 308.148438 220.921875 307.894531 220.695312 307.714844 220.40625 C 307.710938 220.390625 307.695312 220.371094 307.6875 220.355469 C 307.628906 220.246094 307.578125 220.140625 307.542969 220.023438 C 307.527344 219.988281 307.523438 219.960938 307.515625 219.925781 C 307.480469 219.78125 307.457031 219.636719 307.457031 219.484375 L 307.457031 202.503906 C 307.457031 202.367188 307.480469 202.230469 307.507812 202.101562 C 307.515625 202.066406 307.527344 202.03125 307.542969 201.996094 C 307.574219 201.902344 307.609375 201.808594 307.652344 201.722656 C 307.664062 201.683594 307.6875 201.65625 307.703125 201.628906 C 307.753906 201.542969 307.808594 201.457031 307.875 201.375 C 307.890625 201.355469 307.910156 201.332031 307.925781 201.3125 C 308.011719 201.21875 308.105469 201.132812 308.210938 201.054688 C 308.507812 200.84375 308.859375 200.722656 309.242188 200.722656 L 332.695312 200.722656 C 333.679688 200.722656 334.476562 201.519531 334.476562 202.503906 L 334.476562 206.972656 C 334.476562 206.980469 334.484375 206.988281 334.484375 207.003906 C 334.484375 207.019531 334.476562 207.019531 334.476562 207.03125 L 334.476562 213.160156 C 334.476562 213.167969 334.484375 213.175781 334.484375 213.191406 C 334.484375 213.207031 334.476562 213.207031 334.476562 213.21875 L 334.476562 219.492188 C 334.476562 220.191406 334.066406 220.792969 333.484375 221.082031 L 377.40625 221.082031 C 379.246094 221.082031 380.734375 222.570312 380.734375 224.410156 C 380.734375 226.25 379.246094 227.734375 377.40625 227.734375 L 218.722656 227.734375 C 218.710938 228.632812 218.265625 232.492188 211.871094 232.492188 C 204.636719 232.492188 192.453125 232.492188 192.453125 232.492188 L 188.8125 241.578125 C 188.296875 241.261719 187.8125 240.9375 187.351562 240.621094 C 190.101562 242.53125 193.8125 244.445312 198.664062 245.679688 C 206.125 247.578125 215.351562 250.324219 225.320312 253.421875 C 225.320312 253.421875 225.3125 253.421875 225.3125 253.421875 L 325.335938 253.421875 L 329.523438 232.5 C 329.523438 232.5 312.773438 232.5 307.4375 232.5 C 302.105469 232.5 301.726562 227.9375 301.726562 227.9375 L 368.738281 227.9375 C 368.738281 227.9375 367.976562 232.882812 362.648438 232.882812 C 357.320312 232.882812 345.515625 232.882812 345.515625 232.882812 C 345.515625 232.882812 310.105469 396.484375 309.339844 400.667969 C 308.578125 404.851562 309.339844 409.421875 314.289062 409.421875 C 319.238281 409.421875 345.890625 409.421875 350.082031 409.421875 C 354.277344 409.421875 355.21875 412.847656 356.074219 415.515625 L 246.550781 415.515625 C 246.550781 415.515625 247.699219 409.753906 253.46875 409.753906 C 259.234375 409.753906 284.96875 409.753906 288.773438 409.753906 C 292.578125 409.753906 294.863281 405.992188 296.007812 399.90625 C 297.152344 393.820312 319.992188 288.433594 319.992188 288.433594 L 268.304688 288.433594 C 268.792969 294.777344 267.785156 301.488281 265.160156 307.835938 C 257.292969 326.859375 238.257812 360.589844 234.703125 367.699219 C 231.152344 374.796875 224.046875 376.574219 224.046875 376.574219 L 223.449219 376.574219 C 223.125 377.476562 219.082031 388.953125 218.902344 395.53125 C 218.71875 402.378906 236.417969 409.988281 238.898438 411.894531 C 241.371094 413.796875 240.039062 415.507812 238.136719 415.507812 C 236.230469 415.507812 202.917969 415.507812 199.296875 415.507812 C 197.890625 415.507812 196.6875 414.726562 195.746094 413.488281 C 196.105469 414.652344 195.054688 415.507812 193.710938 415.507812 C 191.804688 415.507812 158.492188 415.507812 154.875 415.507812 C 154.558594 415.507812 154.257812 415.457031 153.960938 415.378906 C 131.4375 415.378906 106.011719 415.378906 102.710938 415.378906 C 97.125 415.378906 98.144531 407.007812 103.472656 407.007812 C 108.804688 407.007812 115.40625 407.007812 128.601562 407.007812 C 141.800781 407.007812 147.890625 390.011719 140.535156 378.089844 C 133.175781 366.167969 91.292969 297.179688 87.996094 289.566406 Z M 267.65625 283.726562 C 267.65625 283.738281 267.664062 283.753906 267.664062 283.769531 C 267.664062 283.753906 267.664062 283.738281 267.65625 283.726562 Z M 261.003906 269.359375 C 261.089844 269.46875 261.171875 269.566406 261.257812 269.675781 C 261.171875 269.566406 261.089844 269.460938 261.003906 269.359375 Z M 262.308594 271.0625 C 262.378906 271.164062 262.449219 271.257812 262.515625 271.355469 C 262.445312 271.265625 262.371094 271.164062 262.308594 271.0625 Z M 264.679688 275.015625 C 264.714844 275.085938 264.746094 275.152344 264.78125 275.222656 C 264.746094 275.160156 264.714844 275.085938 264.679688 275.015625 Z M 265.609375 277.046875 C 265.628906 277.105469 265.65625 277.164062 265.679688 277.222656 C 265.65625 277.164062 265.636719 277.105469 265.609375 277.046875 Z M 267.125 281.46875 C 267.132812 281.488281 267.140625 281.511719 267.140625 281.539062 C 267.140625 281.511719 267.132812 281.488281 267.125 281.46875 Z M 258.179688 266.398438 C 258.054688 266.285156 257.917969 266.175781 257.796875 266.0625 C 257.917969 266.175781 258.050781 266.285156 258.179688 266.398438 Z M 256.574219 265.0625 C 256.429688 264.953125 256.292969 264.839844 256.152344 264.730469 C 256.292969 264.847656 256.429688 264.953125 256.574219 265.0625 Z M 252.683594 262.554688 C 252.503906 262.460938 252.324219 262.375 252.144531 262.28125 C 252.332031 262.375 252.511719 262.460938 252.683594 262.554688 Z M 250.742188 261.625 C 250.554688 261.546875 250.359375 261.460938 250.175781 261.382812 C 250.359375 261.460938 250.554688 261.546875 250.742188 261.625 Z M 236.402344 256.90625 C 236.53125 256.949219 236.667969 256.992188 236.796875 257.035156 C 236.667969 256.992188 236.539062 256.949219 236.402344 256.90625 Z M 242.199219 258.753906 C 242.449219 258.832031 242.703125 258.910156 242.945312 258.988281 C 242.703125 258.910156 242.449219 258.832031 242.199219 258.753906 Z M 182.734375 225.054688 L 182.757812 221.082031 L 183.800781 221.082031 C 183.449219 220.75 183.09375 220.40625 182.765625 220.0625 Z M 185.324219 222.398438 C 185.296875 222.375 185.273438 222.351562 185.246094 222.332031 C 185.273438 222.351562 185.296875 222.375 185.324219 222.398438 Z M 197.199219 227.492188 C 197.097656 227.476562 196.992188 227.464844 196.890625 227.449219 C 196.988281 227.464844 197.097656 227.46875 197.199219 227.492188 Z M 194.847656 227.039062 C 194.730469 227.011719 194.617188 226.980469 194.5 226.953125 C 194.617188 226.980469 194.730469 227.011719 194.847656 227.039062 Z M 192.589844 226.390625 C 192.507812 226.363281 192.4375 226.335938 192.359375 226.3125 C 192.4375 226.34375 192.515625 226.371094 192.589844 226.390625 Z M 190.511719 225.582031 C 190.511719 225.582031 190.503906 225.582031 190.503906 225.582031 C 190.503906 225.582031 190.511719 225.582031 190.511719 225.582031 Z M 188.769531 224.703125 C 188.699219 224.667969 188.632812 224.632812 188.5625 224.589844 C 188.632812 224.632812 188.699219 224.667969 188.769531 224.703125 Z M 187.007812 223.625 C 186.9375 223.582031 186.871094 223.53125 186.800781 223.480469 C 186.871094 223.53125 186.9375 223.582031 187.007812 223.625 Z M 185.527344 114.484375 C 185.460938 114.566406 185.398438 114.644531 185.324219 114.714844 C 185.390625 114.644531 185.453125 114.566406 185.527344 114.484375 Z M 206.117188 172.601562 C 205.109375 170.5625 204.109375 168.527344 203.109375 166.492188 C 204.109375 168.527344 205.117188 170.5625 206.117188 172.601562 Z M 187.820312 110.015625 C 187.835938 109.957031 187.855469 109.910156 187.871094 109.851562 C 187.855469 109.910156 187.835938 109.964844 187.820312 110.015625 Z M 186.988281 112.195312 C 187.023438 112.113281 187.066406 112.042969 187.09375 111.964844 C 187.058594 112.035156 187.023438 112.113281 186.988281 112.195312 Z M 185.929688 113.996094 C 186 113.902344 186.066406 113.804688 186.136719 113.703125 C 186.066406 113.804688 186 113.898438 185.929688 113.996094 Z M 186.476562 113.164062 C 186.535156 113.0625 186.597656 112.960938 186.648438 112.855469 C 186.597656 112.957031 186.535156 113.054688 186.476562 113.164062 Z M 211.445312 183.503906 C 211.65625 183.941406 211.871094 184.378906 212.078125 184.828125 C 211.871094 184.386719 211.660156 183.941406 211.445312 183.503906 Z M 217.171875 222.359375 C 217.140625 222.390625 217.113281 222.425781 217.085938 222.453125 C 217.113281 222.425781 217.140625 222.398438 217.171875 222.359375 Z M 215.882812 223.597656 C 215.875 223.605469 215.875 223.605469 215.867188 223.609375 C 215.875 223.605469 215.882812 223.605469 215.882812 223.597656 Z M 214.515625 224.625 C 214.453125 224.667969 214.378906 224.710938 214.308594 224.753906 C 214.378906 224.710938 214.445312 224.667969 214.515625 224.625 Z M 212.839844 225.59375 C 212.820312 225.601562 212.804688 225.617188 212.785156 225.625 C 212.804688 225.617188 212.820312 225.609375 212.839844 225.59375 Z M 211.121094 226.34375 C 211.007812 226.386719 210.886719 226.429688 210.761719 226.472656 C 210.886719 226.429688 211.007812 226.386719 211.121094 226.34375 Z M 209 227.011719 C 208.972656 227.015625 208.949219 227.023438 208.921875 227.03125 C 208.949219 227.03125 208.972656 227.015625 209 227.011719 Z M 206.9375 227.433594 C 206.769531 227.464844 206.605469 227.484375 206.441406 227.507812 C 206.605469 227.484375 206.769531 227.464844 206.9375 227.433594 Z M 182.722656 227.742188 L 182.699219 231.746094 L 184.375 227.742188 Z M 181.425781 235.039062 C 181.742188 235.460938 182.21875 236.058594 182.851562 236.742188 C 182.226562 236.050781 181.742188 235.460938 181.425781 235.039062 Z M 188.109375 109.023438 C 188.121094 108.980469 188.128906 108.9375 188.144531 108.894531 C 188.128906 108.9375 188.117188 108.980469 188.109375 109.023438 Z M 257.609375 218.804688 C 259.589844 218.804688 260.992188 216.871094 260.371094 214.996094 L 252.496094 190.96875 L 215.292969 190.96875 C 215.164062 190.96875 215.042969 190.921875 214.949219 190.839844 C 216.199219 193.5 217.449219 196.210938 218.722656 199.019531 C 222.023438 206.320312 222.542969 215.144531 218.226562 221.089844 L 235.480469 221.089844 L 235.480469 218.804688 Z M 183.101562 237.007812 C 183.160156 237.0625 183.226562 237.128906 183.28125 237.1875 C 183.226562 237.128906 183.160156 237.0625 183.101562 237.007812 Z M 196.890625 363.128906 C 199.679688 354.503906 220.492188 295.652344 220.492188 295.652344 C 220.492188 295.652344 216.011719 295.652344 208.488281 295.652344 C 208.484375 295.667969 208.484375 295.675781 208.476562 295.691406 C 204.125 309.90625 188.222656 361.828125 186.476562 366.417969 C 184.988281 370.320312 183.910156 372.722656 181.835938 374.324219 C 187.074219 382.636719 191.421875 389.492188 193.582031 392.800781 C 194.179688 393.71875 194.710938 394.632812 195.191406 395.542969 C 196.847656 387.015625 199.164062 376.566406 199.164062 376.566406 C 199.164062 376.566406 194.097656 371.75 196.890625 363.128906 Z M 146.121094 316.960938 C 147.53125 319.332031 151.53125 325.808594 156.664062 334.074219 C 157.414062 328.597656 158.199219 322.933594 158.945312 317.550781 C 158.960938 317.421875 158.980469 317.300781 158.996094 317.171875 C 159.160156 315.96875 159.328125 314.792969 159.492188 313.628906 C 159.511719 313.496094 159.527344 313.363281 159.550781 313.230469 C 159.605469 312.800781 159.671875 312.371094 159.730469 311.945312 C 159.785156 311.527344 159.84375 311.121094 159.902344 310.710938 C 159.945312 310.378906 159.996094 310.046875 160.039062 309.71875 C 160.089844 309.359375 160.140625 309.007812 160.191406 308.65625 C 160.371094 307.355469 160.550781 306.097656 160.714844 304.882812 C 160.785156 304.351562 160.867188 303.824219 160.9375 303.316406 C 160.960938 303.171875 160.972656 303.042969 160.996094 302.898438 C 161.039062 302.589844 161.082031 302.273438 161.125 301.972656 C 161.144531 301.804688 161.167969 301.640625 161.195312 301.476562 C 157.621094 301.476562 154.523438 301.476562 152.472656 301.476562 C 144.597656 301.488281 141.304688 308.847656 146.121094 316.960938 Z M 146.121094 316.960938 " fill-opacity="1" fill-rule="nonzero"/></g><g clip-path="url(#1b6bc47ccb)"><path fill="#ff65cf" d="M 218.722656 199.019531 C 213.394531 187.226562 208.253906 176.949219 203.109375 166.488281 C 197.96875 156.023438 189.023438 138.144531 188.835938 133.191406 C 188.648438 128.25 188.453125 121.398438 188.265625 118.351562 C 188.078125 115.304688 184.648438 115.304688 184.648438 115.304688 C 188.074219 112.832031 188.835938 105.222656 188.835938 105.222656 C 188.835938 105.222656 191.503906 105.789062 192.832031 104.082031 C 194.164062 102.371094 189.785156 99.515625 189.410156 97.417969 C 189.027344 95.328125 189.410156 90.003906 188.460938 83.914062 C 187.511719 77.828125 168.660156 66.222656 158.191406 80.496094 C 147.71875 94.757812 159.332031 101.039062 154.574219 110.554688 C 149.8125 120.070312 144.863281 124.4375 144.863281 124.4375 C 144.863281 124.4375 171.136719 131.667969 174.371094 132.429688 C 177.609375 133.191406 183.894531 139.464844 186.367188 147.078125 C 188.84375 154.6875 201.722656 190.890625 201.722656 190.890625 L 167.703125 196.347656 C 167.703125 196.347656 168.652344 197.292969 174.175781 207.378906 C 179.699219 217.460938 186.359375 228.871094 204.261719 227.730469 C 222.148438 226.601562 224.054688 210.8125 218.722656 199.019531 Z M 155.832031 375.113281 L 180.140625 375.050781 C 180.140625 375.050781 174.679688 388.683594 174.492188 395.53125 C 174.308594 402.378906 192.007812 409.988281 194.488281 411.894531 C 194.71875 412.066406 194.898438 412.238281 195.0625 412.410156 C 194.042969 410.519531 193.503906 408.019531 193.59375 405.613281 C 193.78125 400.855469 199.183594 376.574219 199.183594 376.574219 L 223.492188 376.507812 C 223.492188 376.507812 219.113281 388.683594 218.925781 395.53125 C 218.738281 402.378906 236.4375 409.988281 238.917969 411.894531 C 241.394531 413.796875 240.0625 415.507812 238.15625 415.507812 C 236.25 415.507812 202.9375 415.507812 199.320312 415.507812 C 197.910156 415.507812 196.710938 414.726562 195.769531 413.488281 C 196.128906 414.652344 195.078125 415.507812 193.730469 415.507812 C 191.828125 415.507812 158.515625 415.507812 154.894531 415.507812 C 151.277344 415.507812 148.992188 410.371094 149.1875 405.613281 C 149.359375 400.855469 155.832031 375.113281 155.832031 375.113281 Z M 155.832031 375.113281 " fill-opacity="1" fill-rule="nonzero"/></g><path fill="#ffffff" d="M 94.851562 279.421875 C 98.914062 294.890625 121.757812 295.652344 156.535156 295.652344 C 158.382812 295.652344 160.210938 295.652344 162.023438 295.652344 C 159.648438 312.492188 153.140625 358.851562 152.730469 364.644531 C 152.222656 371.742188 155.523438 375.804688 155.523438 375.804688 L 179.125 375.804688 C 183.1875 374.28125 184.453125 371.742188 186.488281 366.417969 C 188.246094 361.820312 204.175781 309.820312 208.503906 295.652344 C 216.027344 295.652344 220.507812 295.652344 220.507812 295.652344 C 220.507812 295.652344 199.695312 354.503906 196.902344 363.128906 C 194.113281 371.75 199.191406 376.574219 199.191406 376.574219 L 224.066406 376.574219 C 224.066406 376.574219 231.171875 374.796875 234.726562 367.699219 C 238.277344 360.597656 257.316406 326.859375 265.183594 307.835938 C 273.050781 288.8125 266.449219 266.492188 248.175781 260.65625 C 229.898438 254.820312 211.617188 248.984375 198.671875 245.695312 C 185.726562 242.394531 180.902344 234.28125 180.902344 234.28125 L 98.914062 235.042969 C 98.90625 235.039062 90.789062 263.949219 94.851562 279.421875 Z M 309.21875 200.730469 L 332.695312 200.730469 C 333.679688 200.730469 334.476562 201.527344 334.476562 202.511719 L 334.476562 219.492188 C 334.476562 220.476562 333.679688 221.277344 332.695312 221.277344 L 309.226562 221.277344 C 308.242188 221.277344 307.441406 220.476562 307.441406 219.492188 L 307.441406 202.511719 C 307.4375 201.527344 308.234375 200.730469 309.21875 200.730469 Z M 309.21875 200.730469 " fill-opacity="1" fill-rule="nonzero"/><g clip-path="url(#7262ff64bd)"><path fill="#661ae6" d="M 188.835938 133.199219 C 189.023438 138.144531 197.976562 156.03125 203.109375 166.492188 C 206.957031 174.328125 210.8125 182.058594 214.738281 190.402344 L 353.003906 190.402344 L 373.3125 95.78125 L 273.554688 109.476562 L 188.359375 108.011719 C 187.8125 110.449219 186.71875 113.8125 184.648438 115.3125 C 184.648438 115.3125 188.074219 115.3125 188.265625 118.359375 C 188.453125 121.398438 188.640625 128.25 188.835938 133.199219 Z M 218.21875 221.082031 L 377.40625 221.082031 C 379.246094 221.082031 380.734375 222.570312 380.734375 224.410156 C 380.734375 226.25 379.246094 227.734375 377.40625 227.734375 L 204.253906 227.734375 C 211.070312 227.304688 215.566406 224.738281 218.21875 221.082031 Z M 182.765625 221.082031 L 183.808594 221.082031 C 187.648438 224.660156 192.601562 227.261719 199.492188 227.742188 L 182.722656 227.742188 Z M 87.996094 289.566406 C 84.695312 281.957031 87.996094 280.433594 97.640625 280.433594 C 107.285156 280.433594 107.796875 280.433594 119.980469 280.433594 C 132.164062 280.433594 140.289062 294.890625 153.488281 294.890625 C 166.683594 294.890625 198.164062 294.890625 198.164062 294.890625 C 198.164062 294.890625 198.164062 301.488281 190.796875 301.488281 C 183.433594 301.488281 160.339844 301.488281 152.464844 301.488281 C 144.597656 301.488281 141.296875 308.847656 146.121094 316.960938 C 150.949219 325.074219 185.972656 381.136719 193.589844 392.800781 C 200.972656 404.117188 199.429688 415.371094 188.257812 415.371094 C 177.089844 415.371094 108.300781 415.371094 102.710938 415.371094 C 97.125 415.371094 98.144531 407 103.472656 407 C 108.804688 407 115.40625 407 128.601562 407 C 141.800781 407 147.890625 390.003906 140.535156 378.082031 C 133.175781 366.167969 91.292969 297.179688 87.996094 289.566406 Z M 87.996094 289.566406 " fill-opacity="1" fill-rule="nonzero"/></g><path fill="#202020" d="M 136.347656 89.3125 C 139.269531 91.597656 143.710938 89.0625 143.710938 89.0625 C 143.710938 89.0625 139.910156 101.363281 146 103.640625 C 152.089844 105.925781 149.933594 110.492188 157.167969 110.871094 C 164.402344 111.253906 166.691406 104.65625 166.691406 104.65625 C 166.691406 104.65625 161.484375 102.246094 162.628906 94.636719 C 163.769531 87.027344 173.035156 89.691406 173.035156 89.691406 L 172.523438 95.527344 C 174.191406 95.859375 176.441406 95.320312 178.703125 93.582031 L 188.914062 98.214844 L 187.09375 102.792969 C 186.980469 103.089844 187.121094 103.425781 187.417969 103.542969 C 187.488281 103.570312 187.5625 103.585938 187.632812 103.585938 C 187.863281 103.585938 188.078125 103.449219 188.171875 103.21875 L 192.105469 93.328125 C 192.222656 93.035156 192.078125 92.695312 191.785156 92.582031 C 191.488281 92.46875 191.152344 92.609375 191.035156 92.90625 L 189.34375 97.144531 L 179.679688 92.753906 C 182.246094 90.375 184.714844 86.386719 186.238281 80.308594 C 187 74.222656 180.277344 69.277344 174.558594 70.414062 C 168.847656 71.554688 169.101562 67.367188 163.261719 66.734375 C 157.421875 66.101562 154.378906 73.199219 154.378906 73.199219 C 154.378906 73.199219 154.507812 68.378906 151.96875 67.996094 C 149.429688 67.617188 148.164062 67.367188 146.890625 64.449219 C 145.617188 61.53125 141.304688 61.53125 138.132812 63.816406 C 134.960938 66.101562 131.40625 62.550781 129.25 65.839844 C 127.09375 69.140625 129.25 72.058594 128.359375 74.847656 C 127.464844 77.632812 125.4375 82.203125 130.644531 83.46875 C 135.84375 84.75 133.429688 87.035156 136.347656 89.3125 Z M 188.222656 93.234375 C 188.144531 93.191406 186.332031 92.179688 184.390625 93.472656 C 184.289062 93.539062 184.179688 93.566406 184.074219 93.566406 C 183.886719 93.566406 183.707031 93.472656 183.589844 93.308594 C 183.410156 93.042969 183.484375 92.683594 183.75 92.511719 C 186.308594 90.808594 188.707031 92.179688 188.804688 92.238281 C 189.078125 92.394531 189.171875 92.746094 189.007812 93.019531 C 188.855469 93.300781 188.503906 93.394531 188.222656 93.234375 Z M 178.292969 116.140625 C 181.835938 116.492188 184.296875 114.859375 184.316406 114.839844 C 184.578125 114.660156 184.9375 114.730469 185.117188 114.988281 C 185.296875 115.253906 185.222656 115.605469 184.964844 115.785156 C 184.851562 115.867188 182.132812 117.675781 178.167969 117.28125 C 177.886719 117.253906 177.628906 117.222656 177.371094 117.195312 C 177.328125 117.21875 177.292969 117.246094 177.25 117.261719 C 176.046875 117.621094 175.53125 118.402344 175.617188 118.832031 C 175.679688 119.164062 176.191406 119.230469 176.644531 119.179688 C 179.03125 118.925781 183.84375 118.546875 183.894531 118.539062 C 184.042969 118.53125 184.203125 118.574219 184.316406 118.675781 C 184.433594 118.777344 184.503906 118.921875 184.511719 119.078125 L 184.777344 123.269531 C 184.800781 123.585938 184.554688 123.855469 184.238281 123.878906 C 184.226562 123.878906 184.21875 123.878906 184.203125 123.878906 C 183.902344 123.878906 183.648438 123.640625 183.628906 123.339844 L 183.410156 119.738281 C 182.054688 119.847656 178.660156 120.128906 176.78125 120.328125 C 175.308594 120.488281 174.644531 119.773438 174.5 119.0625 C 174.363281 118.394531 174.6875 117.578125 175.457031 116.9375 C 174.480469 116.777344 173.824219 116.621094 173.4375 116.511719 C 173.164062 117 172.667969 117.921875 172.128906 119.035156 L 172.019531 119.371094 L 171.992188 119.328125 C 171.4375 120.507812 170.847656 121.882812 170.410156 123.230469 C 169.359375 126.496094 172.105469 131.34375 172.136719 131.394531 C 172.292969 131.667969 172.199219 132.019531 171.917969 132.179688 C 171.824219 132.230469 171.730469 132.257812 171.632812 132.257812 C 171.429688 132.257812 171.234375 132.15625 171.128906 131.96875 C 171.007812 131.753906 168.09375 126.632812 169.300781 122.886719 C 169.832031 121.21875 170.582031 119.550781 171.230469 118.222656 L 168.597656 114.277344 C 168.382812 113.953125 168.699219 113.542969 169.0625 113.667969 L 173.40625 115.074219 L 173.335938 115.296875 C 173.34375 115.296875 173.359375 115.296875 173.363281 115.304688 C 173.378906 115.292969 174.660156 115.773438 178.292969 116.140625 Z M 180.21875 131.332031 C 180.40625 131.582031 180.355469 131.949219 180.105469 132.136719 C 180.003906 132.214844 179.878906 132.25 179.757812 132.25 C 179.585938 132.25 179.414062 132.171875 179.296875 132.019531 C 179.253906 131.964844 174.722656 125.925781 173.480469 124.433594 C 172.6875 123.484375 172.589844 122.304688 173.226562 121.550781 C 173.695312 121.003906 174.703125 120.636719 175.988281 121.414062 C 177.894531 122.554688 184.109375 126.230469 184.109375 126.230469 L 183.519531 127.21875 C 183.519531 127.21875 177.300781 123.539062 175.394531 122.398438 C 174.832031 122.0625 174.328125 122.023438 174.097656 122.296875 C 173.867188 122.5625 173.890625 123.125 174.355469 123.691406 C 175.625 125.214844 180.03125 131.078125 180.21875 131.332031 Z M 200.851562 191.058594 L 205.929688 203.230469 C 206.050781 203.523438 205.914062 203.863281 205.621094 203.984375 C 205.546875 204.015625 205.46875 204.027344 205.398438 204.027344 C 205.175781 204.027344 204.957031 203.890625 204.867188 203.675781 L 199.789062 191.503906 C 199.664062 191.207031 199.800781 190.871094 200.097656 190.746094 C 200.386719 190.625 200.730469 190.761719 200.851562 191.058594 Z M 152.035156 181.414062 C 152.300781 181.246094 152.660156 181.320312 152.832031 181.59375 L 162.40625 196.617188 L 167.617188 195.792969 C 167.929688 195.742188 168.230469 195.957031 168.28125 196.265625 L 181.167969 194.203125 C 178.03125 195.722656 173.722656 198.136719 170.691406 201.148438 C 169.214844 198.582031 168.4375 197.378906 168.058594 196.820312 C 167.984375 196.871094 167.90625 196.914062 167.804688 196.933594 L 162.21875 197.828125 C 162.1875 197.832031 162.160156 197.832031 162.125 197.832031 C 161.929688 197.832031 161.742188 197.734375 161.636719 197.566406 L 151.859375 182.226562 C 151.6875 181.9375 151.769531 181.578125 152.035156 181.414062 Z M 287.429688 175.757812 C 287.210938 176.621094 287.867188 177.453125 288.757812 177.453125 L 343.515625 177.453125 C 344.164062 177.453125 344.726562 177 344.855469 176.367188 L 358.1875 113.632812 C 358.382812 112.710938 357.621094 111.878906 356.6875 111.992188 L 302.539062 118.503906 C 301.976562 118.566406 301.507812 118.976562 301.371094 119.53125 Z M 288.210938 176.1875 L 301.789062 121.59375 L 356.554688 115.507812 L 343.992188 176.1875 Z M 230.5625 132.417969 L 220.902344 173.585938 C 220.753906 174.234375 220.902344 174.910156 221.320312 175.433594 C 221.738281 175.957031 222.355469 176.253906 223.023438 176.253906 L 245.117188 176.253906 C 246.140625 176.253906 247.007812 175.554688 247.238281 174.558594 L 256.421875 133.832031 C 256.566406 133.191406 256.417969 132.53125 256.015625 132.015625 C 255.609375 131.496094 255 131.195312 254.34375 131.179688 L 232.710938 130.742188 C 232.699219 130.742188 232.683594 130.742188 232.667969 130.742188 C 231.667969 130.742188 230.785156 131.4375 230.5625 132.417969 Z M 222.023438 173.851562 L 231.675781 132.683594 C 231.785156 132.214844 232.230469 131.890625 232.691406 131.898438 L 254.324219 132.335938 C 254.632812 132.34375 254.914062 132.488281 255.109375 132.726562 C 255.292969 132.96875 255.367188 133.277344 255.300781 133.582031 L 246.109375 174.3125 C 246.003906 174.78125 245.601562 175.109375 245.117188 175.109375 L 223.023438 175.109375 C 222.707031 175.109375 222.421875 174.964844 222.226562 174.722656 C 222.023438 174.476562 221.953125 174.160156 222.023438 173.851562 Z M 327.234375 127.308594 C 326.941406 127.308594 326.6875 127.082031 326.660156 126.78125 C 326.628906 126.464844 326.867188 126.1875 327.183594 126.15625 L 348.507812 124.253906 C 348.824219 124.230469 349.105469 124.460938 349.132812 124.777344 C 349.164062 125.09375 348.925781 125.375 348.609375 125.402344 L 327.285156 127.308594 C 327.269531 127.308594 327.257812 127.308594 327.234375 127.308594 Z M 312.773438 133.199219 C 312.46875 133.199219 312.21875 132.96875 312.195312 132.660156 C 312.175781 132.34375 312.414062 132.070312 312.730469 132.042969 L 347.761719 129.570312 C 348.070312 129.535156 348.351562 129.785156 348.378906 130.101562 C 348.402344 130.417969 348.164062 130.691406 347.847656 130.71875 L 312.816406 133.191406 C 312.792969 133.199219 312.777344 133.199219 312.773438 133.199219 Z M 334.859375 136.398438 C 334.878906 136.714844 334.636719 136.988281 334.320312 137.007812 L 308.429688 138.53125 C 308.414062 138.53125 308.40625 138.53125 308.390625 138.53125 C 308.089844 138.53125 307.839844 138.292969 307.816406 137.992188 C 307.796875 137.675781 308.039062 137.402344 308.355469 137.382812 L 334.246094 135.859375 C 334.5625 135.84375 334.835938 136.082031 334.859375 136.398438 Z M 306.269531 142.699219 L 333.304688 141.371094 C 333.636719 141.339844 333.894531 141.601562 333.910156 141.917969 C 333.921875 142.234375 333.679688 142.503906 333.363281 142.519531 L 306.328125 143.851562 C 306.320312 143.851562 306.304688 143.851562 306.300781 143.851562 C 305.996094 143.851562 305.738281 143.613281 305.722656 143.304688 C 305.703125 142.988281 305.953125 142.722656 306.269531 142.699219 Z M 310.277344 147.457031 L 342.640625 146.316406 C 342.925781 146.285156 343.222656 146.550781 343.238281 146.867188 C 343.25 147.183594 343 147.449219 342.683594 147.464844 L 310.320312 148.605469 C 310.3125 148.605469 310.304688 148.605469 310.296875 148.605469 C 309.988281 148.605469 309.730469 148.363281 309.722656 148.054688 C 309.707031 147.738281 309.953125 147.472656 310.277344 147.457031 Z M 318.078125 152.59375 L 341.878906 151.648438 C 342.195312 151.609375 342.46875 151.882812 342.472656 152.199219 C 342.488281 152.515625 342.238281 152.789062 341.921875 152.796875 L 318.121094 153.746094 C 318.117188 153.746094 318.109375 153.746094 318.101562 153.746094 C 317.792969 153.746094 317.539062 153.5 317.527344 153.191406 C 317.511719 152.875 317.757812 152.609375 318.078125 152.59375 Z M 205.828125 396.578125 C 206.125 396.464844 206.460938 396.617188 206.570312 396.917969 C 207.898438 400.445312 211.113281 399.878906 211.25 399.847656 C 211.5625 399.777344 211.863281 399.984375 211.929688 400.300781 C 211.992188 400.609375 211.792969 400.921875 211.476562 400.976562 C 211.460938 400.976562 211.152344 401.035156 210.675781 401.035156 C 209.351562 401.035156 206.726562 400.589844 205.492188 397.3125 C 205.375 397.019531 205.527344 396.6875 205.828125 396.578125 Z M 330.917969 232.429688 L 344.375 232.429688 C 344.691406 232.429688 344.949219 232.6875 344.949219 233.003906 C 344.949219 233.320312 344.691406 233.578125 344.375 233.578125 L 330.917969 233.578125 C 330.601562 233.578125 330.34375 233.320312 330.34375 233.003906 C 330.34375 232.6875 330.601562 232.429688 330.917969 232.429688 Z M 191.632812 232.753906 C 191.632812 233.066406 191.375 233.328125 191.058594 233.328125 L 183.441406 233.328125 C 183.125 233.328125 182.867188 233.066406 182.867188 232.753906 C 182.867188 232.4375 183.125 232.175781 183.441406 232.175781 L 191.058594 232.175781 C 191.375 232.175781 191.632812 232.4375 191.632812 232.753906 Z M 325.171875 255.015625 C 325.488281 255.066406 325.695312 255.359375 325.644531 255.675781 L 320.566406 286.621094 C 320.523438 286.902344 320.28125 287.101562 320 287.101562 C 319.972656 287.101562 319.933594 287.101562 319.90625 287.09375 C 319.589844 287.046875 319.382812 286.75 319.433594 286.433594 L 324.507812 255.488281 C 324.566406 255.171875 324.863281 254.957031 325.171875 255.015625 Z M 214.71875 190.394531 C 214.71875 190.710938 214.976562 190.96875 215.292969 190.96875 L 353.003906 190.96875 C 353.277344 190.96875 353.507812 190.785156 353.5625 190.519531 L 373.875 95.902344 C 373.910156 95.714844 373.859375 95.527344 373.730469 95.390625 C 373.601562 95.253906 373.414062 95.191406 373.226562 95.210938 L 274.417969 108.65625 L 189.207031 107.703125 C 189.207031 107.703125 189.203125 107.703125 189.203125 107.703125 C 188.886719 107.703125 188.625 107.953125 188.625 108.269531 C 188.625 108.585938 188.878906 108.851562 189.195312 108.851562 L 273.503906 109.792969 C 273.441406 109.867188 273.382812 109.945312 273.359375 110.050781 L 255.085938 189.382812 C 255.050781 189.539062 255.085938 189.699219 255.164062 189.820312 L 215.285156 189.820312 C 214.976562 189.8125 214.71875 190.074219 214.71875 190.394531 Z M 256.144531 189.8125 C 256.179688 189.757812 256.207031 189.699219 256.222656 189.632812 L 274.496094 110.304688 C 274.539062 110.117188 274.476562 109.929688 274.359375 109.800781 L 274.503906 109.800781 L 372.574219 96.460938 L 352.535156 189.8125 Z M 320.863281 207.585938 L 320.863281 212.617188 L 315.914062 212.617188 C 315.597656 212.617188 315.339844 212.875 315.339844 213.191406 C 315.339844 213.507812 315.597656 213.765625 315.914062 213.765625 L 320.863281 213.765625 L 320.863281 220.605469 C 320.863281 220.921875 321.121094 221.183594 321.4375 221.183594 C 321.753906 221.183594 322.011719 220.921875 322.011719 220.605469 L 322.011719 213.765625 L 327.816406 213.765625 L 327.816406 220.605469 C 327.816406 220.921875 328.078125 221.183594 328.394531 221.183594 C 328.710938 221.183594 328.96875 220.921875 328.96875 220.605469 L 328.96875 213.765625 L 333.917969 213.765625 C 334.234375 213.765625 334.492188 213.507812 334.492188 213.191406 C 334.492188 212.875 334.234375 212.617188 333.917969 212.617188 L 328.953125 212.617188 L 328.953125 207.585938 L 333.902344 207.585938 C 334.21875 207.585938 334.476562 207.328125 334.476562 207.011719 C 334.476562 206.695312 334.21875 206.4375 333.902344 206.4375 L 328.953125 206.4375 L 328.953125 201.398438 C 328.953125 201.082031 328.695312 200.824219 328.378906 200.824219 C 328.0625 200.824219 327.804688 201.082031 327.804688 201.398438 L 327.804688 206.4375 L 322 206.4375 L 322 201.398438 C 322 201.082031 321.742188 200.824219 321.425781 200.824219 C 321.109375 200.824219 320.847656 201.082031 320.847656 201.398438 L 320.847656 206.4375 L 315.902344 206.4375 C 315.585938 206.4375 315.324219 206.695312 315.324219 207.011719 C 315.324219 207.328125 315.585938 207.585938 315.902344 207.585938 Z M 322.007812 207.585938 L 327.808594 207.585938 L 327.808594 212.617188 L 322.007812 212.617188 Z M 308.191406 201.058594 L 315.195312 201.058594 L 315.195312 221.039062 L 308.347656 221.039062 C 307.808594 220.730469 307.441406 220.160156 307.441406 219.492188 L 307.441406 202.511719 C 307.4375 201.910156 307.738281 201.382812 308.191406 201.058594 Z M 161.355469 301.488281 C 161.355469 301.488281 185.21875 301.488281 191.8125 301.488281 C 198.414062 301.488281 198.15625 294.890625 198.15625 294.890625 L 208.496094 295.648438 C 208.488281 295.660156 208.488281 295.675781 208.484375 295.691406 C 206.707031 296.488281 172.710938 311.75 158.945312 317.550781 C 159.738281 311.84375 160.492188 306.46875 161.125 301.976562 C 161.269531 301.667969 161.355469 301.488281 161.355469 301.488281 Z M 98.90625 235.039062 L 133.9375 234.527344 L 96.820312 243.734375 C 97.929688 238.53125 98.90625 235.039062 98.90625 235.039062 Z M 98.90625 235.039062 " fill-opacity="1" fill-rule="nonzero"/></svg>