<svg xmlns="http://www.w3.org/2000/svg" xmlns:xlink="http://www.w3.org/1999/xlink" width="600" zoomAndPan="magnify" viewBox="0 0 450 449.999984" height="600" preserveAspectRatio="xMidYMid meet" version="1.0"><defs><clipPath id="5ef1fe6b2f"><path d="M 80.089844 76.566406 L 369.589844 76.566406 L 369.589844 373.566406 L 80.089844 373.566406 Z M 80.089844 76.566406 " clip-rule="nonzero"/></clipPath><clipPath id="d825fa0a95"><path d="M 147 115 L 369.589844 115 L 369.589844 373 L 147 373 Z M 147 115 " clip-rule="nonzero"/></clipPath><clipPath id="da54c24111"><path d="M 80.089844 118 L 266 118 L 266 346 L 80.089844 346 Z M 80.089844 118 " clip-rule="nonzero"/></clipPath><clipPath id="daddbc5b1a"><path d="M 80.089844 120 L 361 120 L 361 247 L 80.089844 247 Z M 80.089844 120 " clip-rule="nonzero"/></clipPath><clipPath id="f5cc73d486"><path d="M 81 76.566406 L 366 76.566406 L 366 373.566406 L 81 373.566406 Z M 81 76.566406 " clip-rule="nonzero"/></clipPath></defs><g clip-path="url(#5ef1fe6b2f)"><path fill="#ff65cf" d="M 210.042969 174.527344 L 190.96875 168.644531 L 197.261719 157.304688 L 198.089844 157.691406 C 199.347656 155.3125 202.476562 149.390625 202.8125 148.800781 C 203.234375 148.066406 205.535156 136.722656 205.746094 134.835938 C 205.800781 134.363281 206.277344 133.667969 206.992188 132.867188 L 197.441406 132.789062 L 196.417969 132.15625 L 196.496094 129.476562 L 197.441406 128.765625 L 211.433594 128.84375 C 212.921875 127.671875 214.324219 126.703125 215.082031 126.324219 C 217.179688 125.273438 217.28125 127.269531 217.28125 127.269531 C 217.28125 127.269531 219.402344 126.363281 219.472656 128.527344 C 219.515625 128.550781 219.550781 128.585938 219.582031 128.621094 C 219.996094 128.578125 221.546875 128.515625 221.367188 129.789062 C 221.367188 129.789062 221.972656 129.640625 221.960938 130.765625 L 221.972656 130.65625 L 230.777344 130.742188 L 231.566406 131.453125 L 230.621094 131.765625 L 221.894531 131.476562 C 221.582031 133.367188 217.179688 140.402344 217.179688 140.402344 C 217.179688 140.402344 216.335938 144.605469 215.710938 148.589844 C 215.082031 152.578125 212.570312 153.101562 211.726562 155.203125 C 211.035156 156.9375 209.917969 161.453125 209.546875 162.980469 L 213.613281 164.859375 Z M 369.386719 210.855469 C 369.386719 212.359375 368.167969 213.585938 366.667969 213.585938 L 338.257812 213.585938 L 338.257812 361.308594 C 338.257812 361.308594 344.550781 365.402344 348.636719 367.292969 C 352.722656 369.183594 351.152344 372.964844 351.152344 372.964844 L 295.488281 372.964844 C 295.488281 372.964844 294.859375 369.496094 297.375 367.925781 C 299.894531 366.347656 306.8125 361.308594 306.8125 361.308594 L 306.8125 217.453125 L 306.777344 217.4375 L 306.777344 213.582031 L 195.230469 213.582031 L 195.230469 361.304688 C 195.230469 361.304688 201.523438 365.398438 205.609375 367.289062 C 209.695312 369.175781 208.128906 372.957031 208.128906 372.957031 L 152.460938 372.957031 C 152.460938 372.957031 151.832031 369.492188 154.347656 367.917969 C 156.867188 366.34375 163.785156 361.304688 163.785156 361.304688 L 163.785156 213.582031 L 154.488281 213.582031 C 153.609375 213.582031 152.839844 213.160156 152.34375 212.515625 L 149.019531 224.558594 C 151.898438 236.195312 156.453125 254.5 158.261719 261.03125 C 160.984375 270.902344 163.292969 282.660156 159.101562 295.890625 C 154.910156 309.121094 141.910156 338.726562 141.910156 338.726562 L 120.945312 333.898438 L 124.144531 322.539062 C 124.132812 322.472656 124.132812 322.40625 124.148438 322.335938 C 124.167969 322.261719 124.210938 322.203125 124.25 322.148438 L 136.03125 280.355469 L 113.179688 249.699219 L 102.285156 345.246094 L 100.914062 345.246094 C 100.832031 346.28125 100.1875 354.761719 101.761719 359 C 103.4375 363.511719 107.945312 365.503906 110.566406 367.292969 C 113.1875 369.082031 113.921875 372.332031 110.777344 372.332031 C 107.632812 372.332031 86.5625 372.332031 84.988281 372.332031 C 83.414062 372.332031 81.632812 370.964844 81.632812 368.660156 C 81.632812 366.347656 82.789062 345.246094 82.789062 345.246094 L 80.269531 345.246094 C 80.269531 345.246094 85.300781 302.824219 86.351562 290.648438 C 87.300781 279.601562 81.875 247.847656 84.757812 228.558594 L 80.480469 227.234375 C 80.480469 227.234375 97.042969 183.976562 104.804688 171.378906 C 112.5625 158.78125 124.71875 143.238281 132.894531 134.207031 C 141.066406 125.179688 147.78125 120.976562 147.78125 120.976562 L 151.132812 115.308594 L 156.085938 120.265625 L 157.738281 117.984375 C 157.738281 117.984375 157.703125 117.925781 157.644531 117.8125 C 157.1875 117.484375 156.820312 117.09375 156.554688 116.644531 C 154.511719 113.097656 154.164062 108.734375 154.746094 104.4375 C 155.082031 101.949219 156.628906 98.457031 159.855469 95.769531 C 155.652344 94.679688 152.546875 90.875 152.546875 86.324219 C 152.546875 80.929688 156.910156 76.558594 162.292969 76.558594 C 167.679688 76.558594 172.042969 80.929688 172.042969 86.324219 C 172.042969 88.363281 171.417969 90.253906 170.355469 91.820312 C 171.027344 91.769531 171.71875 91.746094 172.441406 91.757812 C 184.707031 91.914062 189.261719 104.515625 188.792969 108.609375 C 188.769531 108.8125 188.722656 109.011719 188.667969 109.203125 C 188.828125 110.078125 188.925781 110.914062 188.949219 111.683594 C 189.007812 113.617188 188.824219 115.1875 188.539062 116.457031 C 188.570312 116.59375 188.539062 116.738281 188.449219 116.855469 C 188.113281 118.207031 187.667969 119.195312 187.320312 119.898438 L 188.054688 120.921875 L 189.722656 119.9375 C 189.953125 119.804688 190.242188 119.875 190.375 120.105469 C 190.507812 120.332031 190.433594 120.621094 190.207031 120.753906 L 186.75 122.796875 C 186.78125 123.65625 186.859375 124.476562 186.738281 124.90625 C 186.503906 125.773438 184.0625 124.75 184.0625 124.75 C 184.0625 124.75 183.984375 127.898438 179.742188 129.554688 C 175.5 131.210938 165.90625 126.484375 165.90625 126.484375 L 164.886719 128.796875 C 167.679688 131.175781 170.59375 135.585938 173.347656 143.863281 C 176.492188 153.3125 184.460938 178.300781 184.460938 178.300781 L 190.957031 168.640625 L 211.292969 174.941406 C 211.292969 174.941406 207.519531 184.183594 200.601562 199.929688 C 199.003906 203.570312 196.691406 206.238281 194.023438 208.113281 L 366.652344 208.113281 C 368.167969 208.121094 369.386719 209.34375 369.386719 210.855469 Z M 187.238281 121.410156 L 186.886719 120.921875 C 186.828125 121.15625 186.792969 121.417969 186.773438 121.6875 Z M 169.640625 208.121094 C 169.054688 207.65625 168.53125 207.171875 168.113281 206.652344 C 162.660156 199.933594 157.839844 192.585938 157.839844 192.585938 L 153.503906 208.3125 C 153.808594 208.191406 154.140625 208.121094 154.488281 208.121094 Z M 235.648438 143.820312 C 235.648438 143.828125 235.648438 143.832031 235.648438 143.839844 C 235.648438 143.84375 235.652344 143.851562 235.652344 143.855469 C 235.726562 144.839844 235.707031 145.511719 235.574219 145.699219 C 234.835938 146.734375 220.742188 167.554688 219.070312 170.03125 C 218.980469 170.164062 219.023438 170.34375 219.15625 170.425781 L 223.746094 173.304688 C 223.863281 173.375 224.003906 173.359375 224.097656 173.261719 L 225.945312 171.410156 C 226.007812 171.4375 226.074219 171.457031 226.140625 171.457031 C 226.222656 171.457031 226.308594 171.433594 226.378906 171.382812 L 229.242188 173.429688 C 229.355469 173.515625 229.390625 173.671875 229.324219 173.796875 L 228.464844 175.398438 C 228.398438 175.527344 228.433594 175.6875 228.554688 175.765625 L 232.496094 178.445312 C 232.628906 178.535156 232.816406 178.492188 232.902344 178.355469 L 241.601562 163.605469 L 241.601562 198.460938 C 241.601562 198.460938 227.347656 205.597656 226.402344 206.121094 C 225.460938 206.644531 225.359375 208.011719 225.359375 208.011719 L 260.371094 208.011719 C 260.371094 208.011719 260.164062 206.332031 259.117188 205.703125 C 258.070312 205.070312 243.496094 198.5625 243.496094 198.5625 L 243.496094 160.410156 L 245.445312 157.113281 C 245.472656 157.0625 245.507812 157.027344 245.558594 157.003906 C 246.109375 156.746094 249.699219 155 251.148438 153.257812 C 252.621094 151.488281 264.160156 138.398438 265.621094 136.738281 C 265.710938 136.632812 265.710938 136.484375 265.625 136.382812 L 264.683594 135.203125 C 264.585938 135.085938 264.417969 135.0625 264.296875 135.148438 L 257.308594 140.105469 C 257.253906 140.144531 257.199219 140.15625 257.144531 140.15625 L 256.867188 139.933594 C 256.851562 139.859375 256.863281 139.78125 256.917969 139.703125 L 264.6875 129.1875 C 264.765625 129.078125 264.761719 128.929688 264.667969 128.828125 L 262.992188 127.015625 C 262.882812 126.894531 262.691406 126.894531 262.578125 127.015625 L 254.019531 136.109375 C 253.792969 136.351562 253.402344 136.066406 253.570312 135.773438 L 259.976562 124.503906 C 260.046875 124.378906 260.011719 124.214844 259.890625 124.132812 L 258.113281 122.855469 C 257.992188 122.769531 257.824219 122.789062 257.734375 122.902344 L 249.34375 133.011719 C 249.128906 133.269531 248.726562 133.003906 248.875 132.703125 L 254.785156 120.597656 C 254.855469 120.453125 254.789062 120.277344 254.644531 120.214844 L 251.53125 118.859375 C 251.398438 118.796875 251.25 118.851562 251.175781 118.972656 L 241.511719 135.609375 C 241.464844 135.605469 241.417969 135.605469 241.363281 135.617188 C 241.285156 135.636719 241.21875 135.683594 241.160156 135.730469 C 241.097656 135.707031 241.039062 135.671875 241.007812 135.597656 L 236.476562 126.230469 C 236.410156 126.101562 236.261719 126.039062 236.121094 126.09375 L 233.285156 127.175781 C 233.160156 127.226562 233.082031 127.351562 233.105469 127.492188 C 233.410156 129.164062 235.335938 139.46875 235.648438 143.820312 Z M 136.035156 354.164062 C 135.828125 353.53125 134.992188 349.125 134.992188 349.125 L 130.632812 347.699219 L 133.625 336.839844 L 129.433594 335.894531 L 126.511719 346.347656 L 123.457031 345.347656 C 123.457031 345.347656 121.046875 345.660156 119.894531 348.074219 C 119.894531 348.074219 116.75 355.945312 116.121094 357.625 C 115.488281 359.304688 115.699219 361.828125 119.261719 363.609375 C 122.828125 365.398438 140.855469 371.90625 143.265625 372.742188 C 145.675781 373.578125 147.773438 372.742188 145.464844 368.4375 C 143.164062 364.140625 136.246094 354.796875 136.035156 354.164062 Z M 356.730469 172.128906 L 360.835938 151.921875 C 361.023438 151.015625 360.789062 150.074219 360.199219 149.351562 C 359.609375 148.628906 358.746094 148.222656 357.8125 148.222656 L 292.25 148.222656 C 290.800781 148.222656 289.535156 149.25 289.234375 150.671875 L 279.640625 196.058594 C 279.449219 196.972656 279.675781 197.910156 280.265625 198.640625 C 280.855469 199.367188 281.726562 199.785156 282.65625 199.785156 L 290.777344 199.785156 L 292.441406 206.238281 L 269.796875 206.238281 L 269.796875 207.917969 L 365.398438 207.917969 Z M 356.730469 172.128906 " fill-opacity="1" fill-rule="nonzero"/></g><g clip-path="url(#d825fa0a95)"><path fill="#ffffff" d="M 369.386719 210.855469 C 369.386719 212.359375 368.167969 213.585938 366.667969 213.585938 L 338.257812 213.585938 L 338.257812 361.308594 C 338.257812 361.308594 344.550781 365.402344 348.636719 367.292969 C 352.722656 369.183594 351.152344 372.964844 351.152344 372.964844 L 295.488281 372.964844 C 295.488281 372.964844 294.859375 369.496094 297.375 367.925781 C 299.894531 366.347656 306.8125 361.308594 306.8125 361.308594 L 306.8125 213.582031 L 195.230469 213.582031 L 195.230469 361.304688 C 195.230469 361.304688 201.523438 365.398438 205.609375 367.289062 C 209.695312 369.175781 208.128906 372.957031 208.128906 372.957031 L 152.460938 372.957031 C 152.460938 372.957031 151.832031 369.492188 154.347656 367.917969 C 156.867188 366.34375 163.785156 361.304688 163.785156 361.304688 L 163.785156 213.582031 L 154.488281 213.582031 C 152.984375 213.582031 151.765625 212.359375 151.765625 210.855469 C 151.765625 209.347656 152.984375 208.128906 154.488281 208.128906 L 366.660156 208.128906 C 368.167969 208.121094 369.386719 209.34375 369.386719 210.855469 Z M 213.609375 164.867188 L 197.253906 157.304688 L 190.960938 168.644531 L 210.039062 174.527344 Z M 151.132812 115.308594 L 147.78125 120.976562 L 163.714844 127.90625 Z M 207.035156 132.867188 L 211.4375 128.851562 L 197.441406 128.773438 L 196.496094 129.484375 L 196.417969 132.160156 L 197.441406 132.792969 Z M 207.035156 132.867188 " fill-opacity="1" fill-rule="nonzero"/></g><g clip-path="url(#da54c24111)"><path fill="#ffffff" d="M 158.261719 261.039062 C 160.984375 270.910156 163.292969 282.667969 159.101562 295.898438 C 154.910156 309.128906 141.910156 338.730469 141.910156 338.730469 L 120.945312 333.902344 L 136.042969 280.355469 L 113.191406 249.699219 L 102.285156 345.246094 L 80.269531 345.246094 C 80.269531 345.246094 85.300781 302.824219 86.351562 290.648438 C 87.398438 278.46875 80.691406 241.089844 85.929688 223.03125 C 91.171875 204.972656 146.523438 214.421875 146.523438 214.421875 C 146.523438 214.421875 155.535156 251.167969 158.261719 261.039062 Z M 265.613281 136.382812 L 264.667969 135.203125 C 264.574219 135.085938 264.40625 135.0625 264.285156 135.148438 L 257.296875 140.113281 C 257.03125 140.300781 256.710938 139.976562 256.90625 139.714844 L 264.675781 129.199219 C 264.753906 129.089844 264.746094 128.941406 264.65625 128.839844 L 262.980469 127.027344 C 262.871094 126.90625 262.679688 126.90625 262.566406 127.027344 L 254.019531 136.109375 C 253.792969 136.351562 253.402344 136.066406 253.570312 135.773438 L 259.976562 124.503906 C 260.046875 124.378906 260.011719 124.214844 259.890625 124.132812 L 258.113281 122.855469 C 257.992188 122.769531 257.824219 122.789062 257.734375 122.902344 L 249.34375 133.011719 C 249.128906 133.269531 248.726562 133.003906 248.875 132.703125 L 254.785156 120.597656 C 254.855469 120.453125 254.789062 120.277344 254.644531 120.214844 L 251.53125 118.859375 C 251.398438 118.796875 251.25 118.851562 251.175781 118.972656 L 241.507812 135.617188 C 241.394531 135.816406 241.105469 135.804688 241.007812 135.597656 L 236.476562 126.230469 C 236.410156 126.101562 236.261719 126.039062 236.121094 126.09375 L 233.285156 127.175781 C 233.160156 127.226562 233.082031 127.351562 233.105469 127.492188 C 233.488281 129.53125 236.308594 144.664062 235.574219 145.6875 C 234.835938 146.722656 220.742188 167.542969 219.070312 170.019531 C 218.980469 170.148438 219.023438 170.332031 219.15625 170.414062 L 223.746094 173.292969 C 223.863281 173.363281 224.003906 173.347656 224.097656 173.25 L 225.972656 171.371094 C 226.066406 171.277344 226.222656 171.265625 226.335938 171.34375 L 229.242188 173.417969 C 229.355469 173.503906 229.390625 173.660156 229.324219 173.785156 L 228.464844 175.386719 C 228.398438 175.515625 228.433594 175.675781 228.554688 175.753906 L 232.496094 178.433594 C 232.628906 178.523438 232.816406 178.480469 232.902344 178.34375 L 245.4375 157.101562 C 245.46875 157.050781 245.503906 157.015625 245.550781 156.992188 C 246.105469 156.734375 249.691406 154.988281 251.140625 153.246094 C 252.613281 151.476562 264.152344 138.386719 265.613281 136.722656 C 265.703125 136.640625 265.703125 136.488281 265.613281 136.382812 Z M 265.613281 136.382812 " fill-opacity="1" fill-rule="nonzero"/></g><g clip-path="url(#daddbc5b1a)"><path fill="#661ae6" d="M 190.96875 168.644531 L 211.304688 174.949219 C 211.304688 174.949219 207.53125 184.1875 200.613281 199.933594 C 193.695312 215.679688 173.570312 213.375 168.117188 206.652344 C 162.667969 199.933594 157.847656 192.585938 157.847656 192.585938 L 142.960938 246.550781 L 80.480469 227.234375 C 80.480469 227.234375 97.042969 183.976562 104.804688 171.378906 C 112.5625 158.78125 124.71875 143.238281 132.898438 134.207031 C 141.074219 125.179688 147.785156 120.976562 147.785156 120.976562 C 147.785156 120.976562 160.574219 125.804688 163.71875 127.90625 C 166.863281 130.007812 170.214844 134.414062 173.367188 143.863281 C 176.507812 153.3125 184.476562 178.300781 184.476562 178.300781 Z M 357.8125 148.695312 L 292.25 148.695312 C 291.019531 148.695312 289.953125 149.558594 289.703125 150.769531 L 280.109375 196.15625 C 279.765625 197.78125 281.003906 199.300781 282.65625 199.300781 L 348.601562 199.300781 C 349.839844 199.300781 350.90625 198.429688 351.152344 197.214844 L 360.367188 151.828125 C 360.691406 150.207031 359.460938 148.695312 357.8125 148.695312 Z M 259.105469 205.707031 C 258.058594 205.074219 243.484375 198.566406 243.484375 198.566406 L 243.484375 160.351562 L 241.597656 163.289062 L 241.597656 198.460938 C 241.597656 198.460938 227.339844 205.597656 226.398438 206.121094 C 225.453125 206.644531 225.351562 208.011719 225.351562 208.011719 L 260.367188 208.011719 C 260.367188 208.019531 260.15625 206.339844 259.105469 205.707031 Z M 259.105469 205.707031 " fill-opacity="1" fill-rule="nonzero"/></g><g clip-path="url(#f5cc73d486)"><path fill="#242933" d="M 152.546875 86.328125 C 152.546875 80.9375 156.910156 76.566406 162.292969 76.566406 C 167.679688 76.566406 172.042969 80.9375 172.042969 86.328125 C 172.042969 88.371094 171.417969 90.261719 170.355469 91.824219 C 171.027344 91.777344 171.71875 91.753906 172.441406 91.765625 C 184.707031 91.921875 189.261719 104.519531 188.792969 108.613281 C 188.480469 111.304688 185.132812 112.898438 182.859375 113.683594 L 184.230469 115.597656 C 184.207031 115.335938 184.394531 115.101562 184.65625 115.074219 C 184.761719 115.058594 187.199219 114.824219 188.445312 116.257812 C 188.617188 116.457031 188.59375 116.757812 188.394531 116.933594 C 188.304688 117.011719 188.191406 117.050781 188.082031 117.050781 C 187.953125 117.050781 187.820312 117 187.722656 116.890625 C 186.804688 115.835938 184.765625 116.023438 184.75 116.03125 C 184.652344 116.035156 184.566406 116.011719 184.488281 115.96875 L 188.054688 120.933594 L 189.726562 119.949219 C 189.953125 119.816406 190.242188 119.886719 190.375 120.117188 C 190.507812 120.34375 190.433594 120.632812 190.207031 120.765625 L 185.410156 123.601562 C 185.332031 123.644531 185.253906 123.667969 185.167969 123.667969 C 185.007812 123.667969 184.84375 123.582031 184.761719 123.433594 C 184.628906 123.203125 184.699219 122.914062 184.929688 122.785156 L 187.230469 121.421875 L 181.898438 114 C 181.214844 114.199219 180.761719 114.296875 180.761719 114.296875 L 180.210938 110.28125 C 180.210938 110.28125 176.046875 107.523438 172.269531 109.726562 C 168.496094 111.929688 170.226562 117.210938 170.226562 117.210938 C 167.398438 119.808594 158.59375 120.199219 156.550781 116.65625 C 154.503906 113.109375 154.15625 108.746094 154.738281 104.449219 C 155.078125 101.960938 156.621094 98.46875 159.847656 95.78125 C 155.652344 94.683594 152.546875 90.875 152.546875 86.328125 Z M 185.175781 120.898438 C 185.648438 120.898438 186.039062 120.515625 186.039062 120.03125 C 186.039062 119.558594 185.65625 119.164062 185.175781 119.164062 C 184.699219 119.164062 184.308594 119.550781 184.308594 120.03125 C 184.308594 120.515625 184.699219 120.898438 185.175781 120.898438 Z M 181.015625 123.675781 C 181.027344 123.414062 180.828125 123.191406 180.566406 123.175781 C 180.289062 123.15625 180.078125 123.359375 180.066406 123.625 C 180.058594 123.699219 179.996094 125.382812 182.078125 126.292969 C 182.140625 126.316406 182.207031 126.335938 182.265625 126.335938 C 182.453125 126.335938 182.625 126.226562 182.703125 126.046875 C 182.808594 125.804688 182.699219 125.523438 182.457031 125.417969 C 181.011719 124.792969 181.011719 123.734375 181.015625 123.675781 Z M 173.132812 113.332031 C 173 113.554688 173.070312 113.851562 173.292969 113.984375 C 173.371094 114.03125 173.457031 114.050781 173.539062 114.050781 C 173.703125 114.050781 173.859375 113.964844 173.949219 113.820312 C 174.042969 113.65625 174.941406 112.265625 176.21875 112.972656 C 176.449219 113.097656 176.738281 113.011719 176.867188 112.777344 C 176.996094 112.550781 176.910156 112.253906 176.675781 112.128906 C 174.992188 111.214844 173.625 112.515625 173.132812 113.332031 Z M 110.566406 367.289062 C 107.945312 365.5 103.4375 363.507812 101.761719 358.992188 C 100.085938 354.476562 100.921875 345.136719 100.921875 345.136719 L 82.789062 345.238281 C 82.789062 345.238281 81.632812 366.34375 81.632812 368.652344 C 81.632812 370.964844 83.417969 372.324219 84.988281 372.324219 C 86.554688 372.324219 107.632812 372.324219 110.777344 372.324219 C 113.921875 372.324219 113.1875 369.074219 110.566406 367.289062 Z M 136.035156 354.164062 C 135.828125 353.53125 134.992188 349.125 134.992188 349.125 L 130.632812 347.699219 L 133.625 336.839844 L 129.433594 335.894531 L 126.511719 346.347656 L 123.457031 345.347656 C 123.457031 345.347656 121.046875 345.660156 119.894531 348.074219 C 119.894531 348.074219 116.75 355.945312 116.121094 357.625 C 115.488281 359.304688 115.699219 361.828125 119.261719 363.609375 C 122.828125 365.398438 140.855469 371.90625 143.265625 372.742188 C 145.675781 373.578125 147.773438 372.742188 145.464844 368.4375 C 143.164062 364.140625 136.246094 354.796875 136.035156 354.164062 Z M 110.121094 250.039062 L 102.132812 255.175781 C 101.910156 255.320312 101.851562 255.613281 101.988281 255.835938 C 102.082031 255.980469 102.238281 256.054688 102.394531 256.054688 C 102.484375 256.054688 102.566406 256.03125 102.652344 255.976562 L 110.445312 250.960938 L 112.40625 256.582031 L 113.191406 249.691406 L 107.742188 243.183594 Z M 151.847656 188.238281 L 128.679688 241.527344 C 128.578125 241.769531 128.6875 242.054688 128.925781 242.15625 C 128.988281 242.179688 129.054688 242.195312 129.121094 242.195312 C 129.304688 242.195312 129.480469 242.089844 129.558594 241.910156 L 152.324219 189.546875 L 155.929688 199.511719 L 157.839844 192.585938 L 147.984375 177.574219 Z M 184.117188 178.96875 L 186.949219 188.3125 C 187.007812 188.515625 187.199219 188.648438 187.40625 188.648438 C 187.453125 188.648438 187.496094 188.640625 187.542969 188.628906 C 187.796875 188.550781 187.941406 188.285156 187.863281 188.035156 L 185.03125 178.691406 C 184.953125 178.4375 184.6875 178.292969 184.4375 178.371094 C 184.183594 178.453125 184.039062 178.714844 184.117188 178.96875 Z M 100.398438 266.550781 C 100.535156 266.550781 100.675781 266.492188 100.765625 266.378906 L 107.890625 257.660156 C 108.058594 257.457031 108.03125 257.15625 107.824219 256.992188 C 107.621094 256.824219 107.320312 256.855469 107.160156 257.058594 L 100.03125 265.777344 C 99.863281 265.980469 99.890625 266.28125 100.097656 266.445312 C 100.179688 266.523438 100.289062 266.550781 100.398438 266.550781 Z M 124.492188 322.917969 L 145.039062 328.378906 C 145.082031 328.390625 145.125 328.394531 145.160156 328.394531 C 145.371094 328.394531 145.5625 328.257812 145.621094 328.039062 C 145.6875 327.789062 145.539062 327.523438 145.285156 327.457031 L 124.738281 321.996094 C 124.484375 321.929688 124.222656 322.082031 124.15625 322.335938 C 124.082031 322.59375 124.234375 322.851562 124.492188 322.917969 Z M 82.679688 335.535156 L 102.699219 335.535156 C 102.964844 335.535156 103.175781 335.324219 103.175781 335.058594 C 103.175781 334.792969 102.964844 334.582031 102.699219 334.582031 L 82.679688 334.582031 C 82.414062 334.582031 82.203125 334.792969 82.203125 335.058594 C 82.203125 335.324219 82.414062 335.535156 82.679688 335.535156 Z M 163.785156 217.4375 L 179.382812 221.949219 L 179.382812 360.71875 L 165.179688 360.71875 C 164.914062 360.71875 164.703125 360.929688 164.703125 361.195312 C 164.703125 361.460938 164.914062 361.671875 165.179688 361.671875 L 194.324219 361.671875 C 194.585938 361.671875 194.796875 361.460938 194.796875 361.195312 C 194.796875 360.929688 194.585938 360.71875 194.324219 360.71875 L 180.332031 360.71875 L 180.332031 222.226562 L 195.230469 226.527344 L 195.230469 213.582031 L 163.777344 213.582031 L 163.777344 217.4375 Z M 306.769531 217.4375 L 321.734375 221.761719 L 321.734375 360.71875 L 307.535156 360.71875 C 307.269531 360.71875 307.058594 360.929688 307.058594 361.195312 C 307.058594 361.460938 307.269531 361.671875 307.535156 361.671875 L 336.675781 361.671875 C 336.941406 361.671875 337.152344 361.460938 337.152344 361.195312 C 337.152344 360.929688 336.941406 360.71875 336.675781 360.71875 L 322.683594 360.71875 L 322.683594 222.042969 L 338.214844 226.527344 L 338.214844 213.582031 L 306.765625 213.582031 L 306.765625 217.4375 Z M 365.402344 207.910156 L 269.796875 207.910156 L 269.796875 206.230469 L 292.441406 206.230469 L 290.777344 199.777344 L 282.65625 199.777344 C 281.726562 199.777344 280.855469 199.363281 280.265625 198.632812 C 279.675781 197.90625 279.449219 196.96875 279.640625 196.050781 L 289.234375 150.664062 C 289.535156 149.246094 290.800781 148.214844 292.25 148.214844 L 357.8125 148.214844 C 358.746094 148.214844 359.609375 148.628906 360.199219 149.347656 C 360.789062 150.070312 361.015625 151.003906 360.835938 151.917969 L 356.730469 172.128906 Z M 285.835938 171.332031 C 287.765625 169.78125 294.335938 164.902344 301.386719 163.816406 C 301.714844 163.769531 302.039062 163.738281 302.359375 163.734375 C 302.714844 162.988281 303.464844 162.46875 304.34375 162.46875 C 305.554688 162.46875 306.546875 163.460938 306.546875 164.679688 C 306.546875 164.847656 306.523438 165.015625 306.488281 165.171875 C 306.5 165.179688 306.511719 165.183594 306.523438 165.191406 C 307.492188 165.972656 308.378906 167.0625 309.238281 168.53125 C 310.382812 170.480469 311.3125 172.824219 312.214844 175.082031 C 313.273438 177.730469 314.265625 180.226562 315.519531 181.960938 C 316.6875 183.574219 317.847656 184.632812 319.078125 185.191406 L 319.589844 185.355469 C 319.945312 184.613281 320.695312 184.089844 321.574219 184.089844 C 322.433594 184.089844 323.164062 184.589844 323.53125 185.308594 C 323.550781 185.296875 323.566406 185.285156 323.585938 185.277344 C 326.730469 184.210938 330.535156 181.058594 335.214844 175.628906 C 339 171.234375 343.257812 167.738281 347.855469 165.21875 C 347.824219 165.074219 347.8125 164.929688 347.8125 164.78125 C 347.8125 163.566406 348.804688 162.570312 350.019531 162.570312 C 350.722656 162.570312 351.339844 162.910156 351.742188 163.421875 C 351.792969 163.371094 351.84375 163.332031 351.910156 163.300781 C 355.125 162.019531 357.351562 161.679688 357.886719 161.613281 L 359.894531 151.726562 C 360.019531 151.09375 359.863281 150.449219 359.453125 149.949219 C 359.050781 149.449219 358.445312 149.167969 357.808594 149.167969 L 292.25 149.167969 C 291.253906 149.167969 290.375 149.875 290.164062 150.859375 Z M 350.019531 163.527344 C 349.328125 163.527344 348.761719 164.09375 348.761719 164.785156 C 348.761719 165.480469 349.328125 166.046875 350.019531 166.046875 C 350.710938 166.046875 351.273438 165.480469 351.273438 164.785156 C 351.273438 164.09375 350.710938 163.527344 350.019531 163.527344 Z M 321.574219 185.046875 C 320.882812 185.046875 320.316406 185.613281 320.316406 186.304688 C 320.316406 187 320.882812 187.566406 321.574219 187.566406 C 322.265625 187.566406 322.828125 187 322.828125 186.304688 C 322.828125 185.613281 322.265625 185.046875 321.574219 185.046875 Z M 304.347656 163.421875 C 303.65625 163.421875 303.09375 163.988281 303.09375 164.679688 C 303.09375 165.371094 303.65625 165.9375 304.347656 165.9375 C 305.039062 165.9375 305.605469 165.371094 305.605469 164.679688 C 305.605469 163.988281 305.039062 163.421875 304.347656 163.421875 Z M 282.65625 198.828125 L 348.601562 198.828125 C 349.609375 198.828125 350.488281 198.109375 350.683594 197.117188 L 357.6875 162.613281 C 356.863281 162.746094 354.898438 163.136719 352.265625 164.191406 C 352.222656 164.210938 352.183594 164.210938 352.144531 164.214844 C 352.195312 164.394531 352.230469 164.589844 352.230469 164.78125 C 352.230469 165.996094 351.238281 166.988281 350.023438 166.988281 C 349.296875 166.988281 348.660156 166.636719 348.257812 166.09375 C 343.785156 168.550781 339.640625 171.96875 335.941406 176.253906 C 331.148438 181.808594 327.203125 185.0625 323.898438 186.179688 C 323.855469 186.191406 323.816406 186.199219 323.773438 186.199219 C 323.773438 186.234375 323.785156 186.265625 323.785156 186.300781 C 323.785156 187.515625 322.792969 188.507812 321.578125 188.507812 C 320.363281 188.507812 319.375 187.515625 319.375 186.300781 C 319.375 186.292969 319.375 186.289062 319.375 186.28125 L 318.742188 186.078125 C 317.304688 185.429688 316.019531 184.265625 314.757812 182.515625 C 313.433594 180.683594 312.417969 178.132812 311.34375 175.429688 C 310.453125 173.203125 309.539062 170.898438 308.429688 169.007812 C 307.671875 167.710938 306.894531 166.742188 306.066406 166.046875 C 305.664062 166.550781 305.050781 166.882812 304.355469 166.882812 C 303.144531 166.882812 302.167969 165.90625 302.148438 164.703125 C 301.945312 164.714844 301.746094 164.722656 301.535156 164.757812 C 293.589844 165.980469 285.96875 172.457031 285.890625 172.523438 C 285.800781 172.601562 285.691406 172.636719 285.578125 172.636719 C 285.574219 172.636719 285.574219 172.636719 285.566406 172.636719 L 280.578125 196.25 C 280.445312 196.882812 280.601562 197.53125 281.003906 198.03125 C 281.40625 198.539062 282.015625 198.828125 282.65625 198.828125 Z M 318.707031 164.75 C 318.617188 164.640625 318.574219 164.5 318.605469 164.359375 L 319.546875 159.003906 C 319.589844 158.773438 319.789062 158.609375 320.015625 158.609375 L 336.214844 158.609375 C 336.351562 158.609375 336.488281 158.671875 336.578125 158.78125 C 336.671875 158.886719 336.710938 159.03125 336.683594 159.171875 L 335.738281 164.527344 C 335.695312 164.757812 335.5 164.917969 335.269531 164.917969 L 319.074219 164.917969 C 318.929688 164.917969 318.796875 164.859375 318.707031 164.75 Z M 319.636719 163.96875 L 334.867188 163.96875 L 335.640625 159.566406 L 320.414062 159.566406 Z M 247.445312 130.113281 C 247.59375 130.113281 247.738281 130.042969 247.835938 129.917969 L 249.011719 128.261719 C 249.164062 128.042969 249.117188 127.75 248.90625 127.597656 C 248.6875 127.449219 248.394531 127.496094 248.238281 127.707031 L 247.058594 129.363281 C 246.910156 129.578125 246.957031 129.875 247.167969 130.023438 C 247.253906 130.085938 247.347656 130.113281 247.445312 130.113281 Z M 249.589844 125.972656 C 249.65625 126.007812 249.734375 126.023438 249.800781 126.023438 C 249.976562 126.023438 250.144531 125.925781 250.226562 125.757812 L 251.40625 123.398438 C 251.519531 123.164062 251.429688 122.875 251.195312 122.757812 C 250.960938 122.644531 250.671875 122.734375 250.558594 122.96875 L 249.378906 125.328125 C 249.261719 125.5625 249.355469 125.851562 249.589844 125.972656 Z M 255.460938 128.855469 C 255.605469 128.855469 255.757812 128.789062 255.847656 128.660156 L 257.101562 126.925781 C 257.257812 126.714844 257.210938 126.414062 257 126.257812 C 256.789062 126.101562 256.488281 126.148438 256.332031 126.359375 L 255.078125 128.09375 C 254.921875 128.304688 254.96875 128.605469 255.179688 128.761719 C 255.269531 128.828125 255.367188 128.855469 255.460938 128.855469 Z M 252.488281 133.601562 C 252.558594 133.636719 252.636719 133.660156 252.714844 133.660156 C 252.882812 133.660156 253.046875 133.570312 253.136719 133.414062 L 254.160156 131.523438 C 254.285156 131.289062 254.199219 131 253.964844 130.878906 C 253.730469 130.753906 253.441406 130.835938 253.324219 131.070312 L 252.300781 132.960938 C 252.167969 133.183594 252.253906 133.480469 252.488281 133.601562 Z M 256.371094 136.878906 C 256.453125 136.941406 256.550781 136.964844 256.644531 136.964844 C 256.796875 136.964844 256.941406 136.894531 257.035156 136.761719 L 258.527344 134.636719 C 258.679688 134.417969 258.628906 134.125 258.414062 133.972656 C 258.195312 133.824219 257.902344 133.871094 257.753906 134.085938 L 256.261719 136.210938 C 256.105469 136.429688 256.152344 136.730469 256.371094 136.878906 Z M 261.765625 130.15625 C 261.574219 129.976562 261.273438 129.988281 261.09375 130.179688 L 259.914062 131.4375 C 259.734375 131.632812 259.746094 131.933594 259.941406 132.113281 C 260.03125 132.199219 260.148438 132.238281 260.265625 132.238281 C 260.390625 132.238281 260.515625 132.191406 260.613281 132.089844 L 261.789062 130.832031 C 261.964844 130.636719 261.960938 130.335938 261.765625 130.15625 Z M 263.214844 136.953125 L 262.039062 138.210938 C 261.855469 138.402344 261.867188 138.703125 262.0625 138.886719 C 262.152344 138.96875 262.273438 139.011719 262.386719 139.011719 C 262.511719 139.011719 262.636719 138.964844 262.734375 138.859375 L 263.914062 137.601562 C 264.09375 137.410156 264.082031 137.109375 263.886719 136.929688 C 263.695312 136.75 263.394531 136.761719 263.214844 136.953125 Z M 259.921875 139.464844 L 258.742188 140.644531 C 258.558594 140.828125 258.558594 141.128906 258.742188 141.316406 C 258.835938 141.40625 258.960938 141.457031 259.082031 141.457031 C 259.199219 141.457031 259.328125 141.40625 259.417969 141.316406 L 260.59375 140.136719 C 260.78125 139.949219 260.78125 139.648438 260.59375 139.464844 C 260.410156 139.277344 260.109375 139.277344 259.921875 139.464844 Z M 257.644531 140.671875 C 257.613281 140.589844 257.558594 140.511719 257.492188 140.449219 L 245.546875 130.765625 C 245.339844 130.601562 245.039062 130.632812 244.878906 130.835938 C 244.710938 131.042969 244.746094 131.34375 244.949219 131.503906 L 256.796875 141.105469 L 257.855469 144.277344 C 257.921875 144.476562 258.105469 144.605469 258.304688 144.605469 C 258.351562 144.605469 258.40625 144.597656 258.457031 144.578125 C 258.703125 144.496094 258.839844 144.222656 258.757812 143.976562 Z M 236.121094 144.289062 C 236.128906 144.289062 236.140625 144.289062 236.144531 144.289062 C 236.328125 144.277344 240.597656 144.015625 241.730469 141.828125 C 242.824219 139.726562 241.964844 136.132812 241.929688 135.984375 C 241.867188 135.730469 241.609375 135.570312 241.351562 135.636719 C 241.097656 135.695312 240.9375 135.953125 241.003906 136.210938 C 241.007812 136.25 241.8125 139.601562 240.886719 141.390625 C 240.15625 142.804688 237.179688 143.273438 236.09375 143.339844 C 235.828125 143.351562 235.628906 143.582031 235.640625 143.84375 C 235.664062 144.09375 235.871094 144.289062 236.121094 144.289062 Z M 246.183594 155.09375 C 245.480469 154.648438 239.53125 149.492188 235.886719 146.289062 C 235.6875 146.113281 235.390625 146.132812 235.214844 146.332031 C 235.039062 146.53125 235.058594 146.832031 235.257812 147.003906 C 244.589844 155.203125 245.691406 156.023438 246.0625 156.023438 C 246.105469 156.023438 246.140625 156.011719 246.175781 156 C 246.429688 155.914062 246.5625 155.644531 246.476562 155.398438 C 246.429688 155.246094 246.320312 155.144531 246.183594 155.09375 Z M 240.785156 156.117188 C 240.75 156.046875 240.703125 155.980469 240.628906 155.933594 C 240.585938 155.910156 240.546875 155.894531 240.496094 155.878906 L 233.597656 150.136719 C 233.398438 149.96875 233.09375 149.996094 232.925781 150.195312 C 232.757812 150.394531 232.785156 150.703125 232.984375 150.871094 L 236.667969 153.941406 L 225.738281 170.714844 C 225.59375 170.9375 225.652344 171.234375 225.875 171.378906 C 225.953125 171.433594 226.042969 171.457031 226.132812 171.457031 C 226.289062 171.457031 226.441406 171.378906 226.53125 171.238281 L 237.402344 154.554688 L 239.703125 156.46875 L 229.269531 172.527344 C 229.125 172.75 229.191406 173.046875 229.410156 173.191406 C 229.488281 173.246094 229.578125 173.269531 229.667969 173.269531 C 229.824219 173.269531 229.972656 173.191406 230.0625 173.050781 L 240.4375 157.082031 L 243.195312 159.375 C 243.285156 159.449219 243.394531 159.484375 243.503906 159.484375 C 243.640625 159.484375 243.773438 159.421875 243.867188 159.308594 C 244.039062 159.105469 244.007812 158.804688 243.808594 158.636719 Z M 231.558594 131.453125 L 230.777344 130.742188 L 221.972656 130.664062 L 221.894531 131.476562 L 230.621094 131.765625 Z M 220.652344 129.898438 C 217.941406 133.40625 216.535156 135.386719 216.46875 135.777344 C 216.425781 136.039062 216.59375 136.308594 216.855469 136.351562 C 216.882812 136.355469 216.914062 136.355469 216.945312 136.355469 C 217.167969 136.355469 217.359375 136.210938 217.402344 135.984375 C 217.558594 135.585938 219.558594 132.871094 221.410156 130.476562 C 221.570312 130.265625 221.53125 129.96875 221.324219 129.808594 C 221.109375 129.652344 220.808594 129.695312 220.652344 129.898438 Z M 219.511719 129.308594 C 219.71875 129.144531 219.757812 128.851562 219.601562 128.640625 C 219.445312 128.429688 219.144531 128.394531 218.933594 128.550781 C 216.222656 130.625 214.261719 133.660156 214.183594 133.785156 C 214.042969 134.007812 214.105469 134.304688 214.328125 134.441406 C 214.40625 134.496094 214.496094 134.519531 214.589844 134.519531 C 214.746094 134.519531 214.902344 134.441406 214.992188 134.304688 C 215.003906 134.273438 216.9375 131.28125 219.511719 129.308594 Z M 217.246094 127.230469 C 217.089844 127.019531 216.789062 126.972656 216.578125 127.136719 C 213.820312 129.1875 211.792969 131.433594 211.710938 131.53125 C 211.535156 131.726562 211.546875 132.027344 211.746094 132.203125 C 211.835938 132.289062 211.949219 132.324219 212.0625 132.324219 C 212.195312 132.324219 212.324219 132.269531 212.417969 132.167969 C 212.4375 132.144531 214.460938 129.898438 217.140625 127.898438 C 217.359375 127.738281 217.402344 127.441406 217.246094 127.230469 Z M 165.796875 126.757812 L 162.925781 124.601562 L 165.136719 128.25 Z M 241.601562 163.289062 L 241.601562 165.894531 L 243.492188 166.863281 L 243.492188 160.460938 L 242.410156 162.035156 Z M 241.601562 163.289062 " fill-opacity="1" fill-rule="nonzero"/></g></svg>