<svg xmlns="http://www.w3.org/2000/svg" xmlns:xlink="http://www.w3.org/1999/xlink" width="600" zoomAndPan="magnify" viewBox="0 0 450 449.999984" height="600" preserveAspectRatio="xMidYMid meet" version="1.0"><defs><clipPath id="a780080e96"><path d="M 51.730469 63 L 413.980469 63 L 413.980469 388 L 51.730469 388 Z M 51.730469 63 " clip-rule="nonzero"/></clipPath><clipPath id="358ba3c367"><path d="M 51.730469 63 L 375 63 L 375 385 L 51.730469 385 Z M 51.730469 63 " clip-rule="nonzero"/></clipPath></defs><g clip-path="url(#a780080e96)"><path fill="#4801b9" d="M 411.011719 226.175781 C 412.484375 203.269531 413.96875 179.25 413.59375 170.753906 C 413.226562 162.257812 408.058594 159.296875 402.894531 159.296875 C 397.734375 159.296875 376.335938 159.296875 371.171875 159.296875 C 366.011719 159.296875 356.789062 161.882812 353.46875 171.488281 C 351.882812 176.0625 345.863281 194.488281 339.550781 213.71875 C 334.859375 203.886719 327.933594 191.910156 317.808594 179 C 317.089844 178.089844 316.378906 177.203125 315.671875 176.328125 C 315.453125 176.054688 315.234375 175.792969 315.011719 175.519531 C 314.484375 174.878906 313.964844 174.257812 313.445312 173.640625 C 313.203125 173.347656 312.953125 173.058594 312.710938 172.773438 C 312.148438 172.113281 311.582031 171.464844 311.023438 170.828125 C 310.636719 170.386719 310.25 169.953125 309.867188 169.519531 C 309.640625 169.269531 309.417969 169.027344 309.199219 168.777344 C 307.710938 167.140625 306.238281 165.585938 304.785156 164.109375 C 304.785156 138.839844 304.785156 110.03125 304.785156 110.03125 L 250.070312 110.03125 C 250.210938 108.109375 250.167969 106.042969 249.828125 103.871094 C 249.828125 103.871094 251.859375 106.457031 258.128906 105.722656 C 264.398438 104.980469 265.136719 100.917969 267.535156 99.625 C 269.933594 98.332031 273.4375 97.777344 274.726562 92.054688 C 276.015625 86.335938 269.75 81.523438 269.933594 79.308594 C 270.117188 77.089844 270.480469 66.558594 266.0625 64.15625 C 261.632812 61.757812 256.472656 66.925781 252.410156 64.707031 C 248.355469 62.492188 240.605469 62.308594 238.027344 67.476562 C 235.445312 72.648438 238.390625 71.914062 235.628906 76.714844 C 232.863281 81.519531 239.871094 89.28125 239.871094 89.28125 C 239.871094 89.28125 220.878906 83.734375 213.3125 95.558594 C 213.3125 95.558594 213.3125 95.640625 213.324219 95.765625 C 212.996094 96.269531 212.710938 96.792969 212.453125 97.320312 C 212.445312 97.335938 212.445312 97.34375 212.4375 97.355469 C 212.1875 97.878906 211.96875 98.40625 211.777344 98.945312 C 211.777344 98.949219 211.777344 98.949219 211.769531 98.957031 C 211.199219 100.566406 210.914062 102.175781 210.804688 103.597656 C 210.804688 103.621094 210.804688 103.644531 210.796875 103.664062 C 210.765625 104.113281 210.746094 104.539062 210.746094 104.941406 C 210.746094 104.972656 210.746094 105.007812 210.746094 105.039062 C 210.746094 105.433594 210.757812 105.808594 210.789062 106.15625 C 210.789062 106.175781 210.789062 106.207031 210.796875 106.226562 C 210.824219 106.585938 210.871094 106.917969 210.914062 107.203125 C 211 107.695312 211.046875 108.1875 211.066406 108.664062 C 211.089844 109.136719 211.082031 109.589844 211.054688 110.039062 L 209.585938 110.039062 L 209.367188 109.644531 C 209.210938 109.371094 208.875 109.277344 208.605469 109.429688 C 208.382812 109.554688 208.289062 109.804688 208.339844 110.039062 L 157.972656 110.039062 L 59.105469 80.238281 L 55.417969 80.238281 L 54.6875 201.417969 C 54.6875 201.417969 92.53125 201.640625 138.769531 201.832031 L 135.5 214.050781 C 134.960938 216.078125 135.824219 218.066406 137.394531 219.144531 L 51.730469 219.144531 L 51.730469 226.167969 L 74.328125 226.167969 L 74.328125 384.304688 L 100.339844 384.304688 L 100.339844 226.167969 L 200.453125 226.167969 C 200.453125 226.175781 200.457031 226.175781 200.457031 226.179688 C 200.605469 226.488281 200.753906 226.789062 200.890625 227.085938 C 200.972656 227.253906 201.050781 227.421875 201.132812 227.589844 C 201.25 227.839844 201.367188 228.082031 201.484375 228.316406 C 201.601562 228.554688 201.707031 228.78125 201.816406 229 C 201.894531 229.164062 201.976562 229.332031 202.058594 229.492188 C 202.246094 229.882812 202.429688 230.257812 202.597656 230.609375 C 208.683594 242.984375 224.550781 244.464844 231.742188 236.703125 C 231.984375 236.449219 232.242188 236.160156 232.519531 235.851562 C 232.613281 235.75 232.726562 235.632812 232.820312 235.523438 C 233.011719 235.308594 233.203125 235.105469 233.40625 234.875 C 233.53125 234.738281 233.664062 234.597656 233.789062 234.449219 C 233.992188 234.222656 234.199219 233.996094 234.410156 233.753906 C 234.550781 233.597656 234.691406 233.4375 234.828125 233.28125 C 235.035156 233.046875 235.246094 232.8125 235.464844 232.5625 C 235.636719 232.371094 235.804688 232.179688 235.972656 231.988281 C 236.191406 231.742188 236.417969 231.484375 236.65625 231.21875 C 236.816406 231.035156 236.96875 230.859375 237.136719 230.667969 C 237.410156 230.359375 237.679688 230.042969 237.960938 229.726562 C 238.105469 229.566406 238.246094 229.398438 238.390625 229.234375 C 238.671875 228.914062 238.964844 228.582031 239.25 228.253906 C 239.410156 228.070312 239.574219 227.886719 239.734375 227.703125 C 240.121094 227.253906 240.519531 226.796875 240.921875 226.335938 C 240.972656 226.277344 241.015625 226.226562 241.066406 226.167969 L 267.183594 226.167969 C 267.234375 228.5625 267.140625 230.808594 266.992188 232.746094 C 266.992188 232.769531 266.992188 232.789062 266.984375 232.8125 C 266.957031 233.179688 266.925781 233.53125 266.898438 233.871094 C 266.898438 233.90625 266.890625 233.9375 266.890625 233.972656 C 266.859375 234.296875 266.832031 234.613281 266.792969 234.921875 C 266.785156 234.957031 266.785156 234.992188 266.78125 235.03125 C 266.75 235.324219 266.714844 235.601562 266.683594 235.867188 C 266.675781 235.910156 266.675781 235.957031 266.667969 236 C 266.640625 236.257812 266.605469 236.507812 266.574219 236.734375 C 266.566406 236.769531 266.566406 236.808594 266.558594 236.84375 C 266.53125 237.070312 266.5 237.285156 266.472656 237.484375 C 266.464844 237.519531 266.464844 237.550781 266.457031 237.585938 C 266.425781 237.777344 266.40625 237.953125 266.375 238.113281 C 266.367188 238.144531 266.367188 238.179688 266.363281 238.210938 C 266.339844 238.363281 266.316406 238.503906 266.296875 238.628906 C 266.289062 238.648438 266.289062 238.679688 266.28125 238.703125 C 266.257812 238.828125 266.246094 238.9375 266.222656 239.023438 C 266.222656 239.03125 266.214844 239.046875 266.214844 239.0625 C 266.199219 239.15625 266.1875 239.230469 266.179688 239.28125 C 266.179688 239.28125 266.179688 239.289062 266.179688 239.289062 C 266.171875 239.339844 266.164062 239.371094 266.164062 239.371094 L 307.117188 239.371094 L 268.136719 239.621094 C 268.136719 239.621094 228.054688 254.402344 208.136719 264.5 C 188.214844 274.597656 191.902344 293.5625 191.902344 293.5625 L 173.707031 313.265625 C 173.707031 313.265625 173.96875 313.425781 174.4375 313.722656 C 174.460938 313.734375 174.484375 313.75 174.496094 313.757812 C 174.652344 313.851562 174.8125 313.957031 175.003906 314.074219 L 150.214844 342.949219 C 150.214844 342.949219 144.132812 349.96875 141.359375 353.109375 C 141.089844 353.417969 140.816406 353.707031 140.546875 353.992188 C 140.5 354.035156 140.457031 354.085938 140.414062 354.132812 C 140.15625 354.394531 139.902344 354.644531 139.644531 354.894531 C 139.585938 354.945312 139.535156 355 139.484375 355.050781 C 139.234375 355.285156 138.984375 355.519531 138.742188 355.734375 C 138.707031 355.761719 138.667969 355.792969 138.640625 355.820312 C 138.414062 356.019531 138.191406 356.210938 137.980469 356.386719 C 137.941406 356.414062 137.898438 356.453125 137.863281 356.488281 C 137.640625 356.671875 137.4375 356.839844 137.230469 356.996094 C 137.179688 357.03125 137.136719 357.070312 137.085938 357.105469 C 136.894531 357.253906 136.710938 357.390625 136.550781 357.515625 C 136.519531 357.539062 136.5 357.554688 136.46875 357.574219 C 136.300781 357.699219 136.148438 357.8125 136.023438 357.90625 C 135.875 358.007812 135.757812 358.089844 135.671875 358.15625 C 133.382812 358.972656 127.589844 360.6875 119.429688 360.6875 C 108.734375 360.6875 107.261719 364.382812 107.992188 365.859375 C 108.734375 367.335938 141.007812 385.445312 142.296875 385.445312 C 143.589844 385.445312 147.09375 382.675781 148.015625 381.191406 C 148.941406 379.714844 154.101562 370.476562 154.101562 370.476562 L 167.378906 353.851562 L 197.445312 327.804688 L 191.417969 324.0625 C 191.417969 324.0625 191.425781 324.0625 191.425781 324.066406 C 191.675781 324.214844 191.925781 324.363281 192.175781 324.507812 C 192.3125 324.589844 192.453125 324.675781 192.59375 324.757812 C 192.820312 324.890625 193.039062 325.023438 193.265625 325.15625 C 193.414062 325.242188 193.566406 325.332031 193.714844 325.417969 C 193.933594 325.550781 194.152344 325.675781 194.375 325.808594 C 194.519531 325.898438 194.667969 325.976562 194.804688 326.066406 C 195.011719 326.191406 195.222656 326.308594 195.421875 326.425781 C 195.582031 326.519531 195.730469 326.609375 195.890625 326.695312 C 196.214844 326.878906 196.523438 327.0625 196.824219 327.242188 C 196.992188 327.335938 197.167969 327.4375 197.328125 327.535156 C 197.476562 327.613281 197.605469 327.695312 197.746094 327.769531 C 197.914062 327.863281 198.082031 327.960938 198.253906 328.054688 C 198.382812 328.128906 198.507812 328.203125 198.632812 328.269531 C 198.792969 328.355469 198.949219 328.445312 199.101562 328.53125 C 199.210938 328.597656 199.328125 328.65625 199.441406 328.714844 C 199.625 328.8125 199.792969 328.90625 199.953125 328.996094 C 200.019531 329.03125 200.09375 329.070312 200.152344 329.105469 C 200.371094 329.222656 200.578125 329.332031 200.765625 329.429688 C 200.824219 329.457031 200.875 329.480469 200.933594 329.507812 C 201.058594 329.574219 201.183594 329.632812 201.292969 329.6875 C 201.351562 329.714844 201.40625 329.738281 201.464844 329.765625 C 201.558594 329.808594 201.648438 329.847656 201.71875 329.882812 C 201.765625 329.90625 201.808594 329.921875 201.84375 329.933594 C 201.917969 329.964844 201.976562 329.988281 202.027344 330 C 202.050781 330.007812 202.085938 330.015625 202.101562 330.023438 C 202.167969 330.039062 202.21875 330.046875 202.234375 330.03125 C 202.261719 330.007812 202.328125 329.949219 202.410156 329.882812 C 202.421875 329.871094 202.4375 329.855469 202.460938 329.839844 C 202.542969 329.757812 202.644531 329.664062 202.761719 329.546875 C 202.78125 329.523438 202.804688 329.503906 202.828125 329.480469 C 202.945312 329.371094 203.070312 329.238281 203.207031 329.097656 C 203.238281 329.070312 203.265625 329.039062 203.296875 329.011719 C 203.457031 328.847656 203.625 328.671875 203.816406 328.472656 C 203.859375 328.421875 203.910156 328.378906 203.957031 328.328125 C 204.140625 328.136719 204.324219 327.945312 204.527344 327.730469 C 204.566406 327.695312 204.601562 327.660156 204.636719 327.621094 C 204.84375 327.410156 205.054688 327.1875 205.277344 326.953125 C 205.335938 326.886719 205.398438 326.820312 205.464844 326.753906 C 205.699219 326.511719 205.933594 326.257812 206.175781 326 C 206.242188 325.933594 206.308594 325.859375 206.375 325.785156 C 206.589844 325.558594 206.808594 325.324219 207.027344 325.089844 C 207.078125 325.03125 207.128906 324.980469 207.183594 324.925781 C 207.4375 324.65625 207.695312 324.382812 207.953125 324.105469 C 208.054688 323.996094 208.164062 323.878906 208.265625 323.765625 C 208.464844 323.554688 208.671875 323.332031 208.875 323.121094 C 208.957031 323.03125 209.035156 322.945312 209.125 322.855469 C 209.34375 322.621094 209.570312 322.378906 209.792969 322.144531 C 209.910156 322.019531 210.019531 321.902344 210.136719 321.777344 C 210.296875 321.601562 210.464844 321.425781 210.628906 321.253906 C 210.789062 321.085938 210.941406 320.917969 211.097656 320.757812 C 211.28125 320.558594 211.457031 320.367188 211.632812 320.183594 C 211.710938 320.09375 211.792969 320.007812 211.875 319.917969 C 212.101562 319.675781 212.3125 319.449219 212.527344 319.222656 C 212.59375 319.148438 212.660156 319.082031 212.71875 319.015625 C 212.855469 318.867188 212.988281 318.722656 213.121094 318.582031 C 213.320312 318.371094 213.496094 318.179688 213.671875 317.988281 C 213.722656 317.929688 213.78125 317.871094 213.832031 317.8125 C 213.882812 317.761719 213.933594 317.703125 213.984375 317.648438 C 213.984375 317.648438 213.992188 317.644531 213.992188 317.644531 C 214.007812 317.628906 214.023438 317.613281 214.035156 317.597656 C 214.152344 317.472656 214.257812 317.355469 214.359375 317.253906 C 214.394531 317.210938 214.433594 317.171875 214.46875 317.136719 C 214.609375 316.980469 214.726562 316.855469 214.835938 316.738281 C 214.886719 316.679688 214.9375 316.628906 214.984375 316.578125 C 215.019531 316.542969 215.054688 316.496094 215.085938 316.46875 C 215.101562 316.453125 215.105469 316.445312 215.113281 316.429688 C 215.152344 316.394531 215.179688 316.363281 215.203125 316.335938 C 215.253906 316.285156 215.28125 316.246094 215.28125 316.246094 L 214.148438 315.46875 C 222.085938 319.660156 228.070312 316.738281 228.070312 316.738281 L 229.75 315.09375 L 250.589844 333.292969 L 254 336.273438 L 242.652344 384.253906 C 242.34375 385.546875 242.953125 386.875 244.125 387.492188 C 245.761719 388.351562 247.761719 387.476562 248.261719 385.699219 L 257.910156 351.136719 L 259.234375 353.132812 C 259.234375 353.132812 260.34375 361.628906 260.527344 365.699219 C 260.710938 369.757812 257.761719 377.886719 257.945312 381.214844 C 258.128906 384.539062 261.265625 385.832031 263.296875 384.539062 C 265.328125 383.246094 286.539062 351.105469 288.011719 347.78125 C 289.484375 344.453125 285.796875 341.867188 284.507812 340.390625 C 283.21875 338.917969 277.5 334.847656 277.5 334.847656 L 267.910156 327.460938 L 262.417969 334.988281 L 262.527344 334.589844 L 262.738281 334.296875 L 262.636719 334.210938 L 274.351562 292.226562 L 275.136719 289.414062 C 283.003906 289.414062 293.144531 289.414062 304 289.414062 L 307.511719 302.007812 L 330.871094 385.714844 C 331.371094 387.492188 333.371094 388.359375 335.007812 387.507812 C 336.179688 386.890625 336.789062 385.5625 336.480469 384.269531 L 314.40625 290.949219 L 314.046875 289.414062 C 331.941406 289.414062 350.441406 289.414062 363.066406 289.414062 C 363.136719 289.414062 363.203125 289.40625 363.269531 289.40625 L 363.386719 289.832031 L 364.230469 292.851562 L 390.148438 385.714844 C 390.644531 387.492188 392.648438 388.359375 394.28125 387.507812 C 395.457031 386.890625 396.0625 385.5625 395.753906 384.269531 L 373.945312 292.058594 L 372.984375 288.003906 C 398.144531 280.691406 409.699219 246.566406 411.011719 226.175781 Z M 235.980469 308.933594 C 236.054688 308.398438 236.089844 307.863281 236.121094 307.324219 C 236.125 307.207031 236.132812 307.089844 236.132812 306.980469 C 236.148438 306.457031 236.148438 305.945312 236.125 305.4375 C 236.125 305.363281 236.121094 305.292969 236.113281 305.21875 C 236.082031 304.746094 236.046875 304.292969 235.988281 303.828125 C 235.972656 303.734375 235.964844 303.644531 235.957031 303.550781 C 235.890625 303.058594 235.8125 302.574219 235.714844 302.089844 C 235.695312 301.992188 235.671875 301.898438 235.65625 301.796875 C 235.5625 301.355469 235.464844 300.929688 235.347656 300.503906 C 235.335938 300.445312 235.320312 300.386719 235.304688 300.335938 C 235.179688 299.878906 235.050781 299.4375 234.910156 299.003906 C 234.871094 298.894531 234.835938 298.785156 234.800781 298.675781 C 234.660156 298.257812 234.515625 297.84375 234.359375 297.457031 C 234.335938 297.390625 234.308594 297.332031 234.285156 297.265625 C 234.15625 296.925781 234.023438 296.605469 233.882812 296.289062 C 233.832031 296.164062 233.78125 296.039062 233.722656 295.921875 C 233.574219 295.597656 233.429688 295.273438 233.28125 294.972656 C 233.214844 294.835938 233.148438 294.710938 233.085938 294.578125 C 232.988281 294.394531 232.902344 294.210938 232.804688 294.035156 C 232.730469 293.894531 232.660156 293.753906 232.585938 293.621094 L 241.242188 286.640625 C 245.496094 286.640625 251.859375 286.640625 260.878906 286.640625 C 259.808594 288.152344 259.402344 289.347656 259.402344 289.347656 C 259.644531 289.347656 261.691406 289.347656 265.070312 289.347656 L 263.964844 294.019531 L 261.785156 303.214844 L 255.847656 328.335938 L 234.695312 310.175781 Z M 331.171875 239.199219 C 331.339844 238.695312 331.507812 238.171875 331.679688 237.667969 C 331.808594 237.277344 331.933594 236.886719 332.066406 236.492188 C 331.765625 237.410156 331.464844 238.3125 331.171875 239.199219 Z M 332.433594 235.382812 C 332.875 234.054688 333.320312 232.703125 333.769531 231.335938 C 333.210938 233.03125 332.660156 234.707031 332.117188 236.335938 C 332.222656 236.015625 332.332031 235.691406 332.433594 235.382812 Z M 252.378906 213.035156 C 252.410156 213 252.4375 212.964844 252.46875 212.933594 C 252.980469 212.332031 253.488281 211.746094 253.980469 211.164062 C 254.039062 211.097656 254.097656 211.023438 254.15625 210.957031 C 255.175781 209.769531 256.148438 208.625 257.066406 207.550781 C 257.210938 207.382812 257.351562 207.214844 257.496094 207.042969 C 257.792969 206.699219 258.078125 206.367188 258.355469 206.039062 C 258.503906 205.863281 258.648438 205.695312 258.796875 205.523438 C 259.117188 205.148438 259.425781 204.789062 259.71875 204.4375 C 259.777344 204.371094 259.835938 204.296875 259.894531 204.230469 C 260.019531 204.355469 260.152344 204.488281 260.269531 204.613281 C 260.679688 205.046875 261.0625 205.503906 261.425781 205.964844 C 261.53125 206.097656 261.632812 206.230469 261.726562 206.367188 C 262.007812 206.742188 262.269531 207.125 262.519531 207.515625 C 262.59375 207.632812 262.675781 207.75 262.746094 207.867188 C 263.054688 208.375 263.347656 208.886719 263.621094 209.417969 C 263.671875 209.519531 263.714844 209.621094 263.765625 209.71875 C 263.984375 210.164062 264.191406 210.621094 264.390625 211.082031 C 264.457031 211.230469 264.515625 211.378906 264.574219 211.53125 C 264.777344 212.046875 264.976562 212.566406 265.152344 213.09375 C 265.167969 213.140625 265.1875 213.183594 265.203125 213.234375 C 265.402344 213.824219 265.570312 214.425781 265.730469 215.019531 C 265.769531 215.144531 265.796875 215.277344 265.828125 215.402344 C 265.953125 215.902344 266.074219 216.40625 266.179688 216.90625 C 266.199219 217.023438 266.230469 217.148438 266.25 217.265625 C 266.375 217.882812 266.492188 218.507812 266.589844 219.132812 L 247.132812 219.132812 C 248.914062 217.082031 250.679688 215.019531 252.378906 213.035156 Z M 176.933594 217.839844 L 167.34375 217.882812 C 164.351562 217.898438 162.152344 215.078125 162.886719 212.171875 L 165.472656 201.933594 C 173.367188 201.964844 181.34375 201.984375 189.261719 202.007812 C 189.277344 202.027344 189.285156 202.058594 189.300781 202.082031 C 191.960938 207.984375 194.71875 213.96875 197.136719 219.148438 L 176.9375 219.148438 Z M 219.441406 211.613281 C 219.375 211.515625 219.292969 211.40625 219.210938 211.289062 C 219.140625 211.1875 219.066406 211.074219 218.976562 210.957031 C 218.898438 210.847656 218.824219 210.738281 218.734375 210.613281 C 218.734375 210.613281 218.734375 210.613281 218.734375 210.605469 C 218.355469 210.0625 217.902344 209.410156 217.371094 208.660156 C 217.371094 208.652344 217.367188 208.652344 217.367188 208.644531 C 216.316406 207.148438 215.011719 205.265625 213.554688 203.167969 C 213.539062 203.144531 213.53125 203.128906 213.515625 203.109375 C 213.28125 202.769531 213.046875 202.433594 212.804688 202.082031 C 212.796875 202.066406 212.789062 202.058594 212.78125 202.042969 C 217.71875 202.050781 222.578125 202.058594 227.335938 202.066406 L 219.945312 212.316406 C 219.9375 212.324219 219.753906 212.058594 219.441406 211.613281 Z M 219.441406 211.613281 " fill-opacity="1" fill-rule="nonzero"/></g><path fill="#ffffff" d="M 234.199219 286.644531 L 209.851562 312.507812 L 215.261719 316.203125 C 215.261719 316.203125 202.964844 329.503906 202.226562 329.996094 C 201.484375 330.484375 173.699219 313.242188 173.699219 313.242188 L 191.894531 293.542969 C 191.894531 293.542969 188.207031 274.574219 208.128906 264.476562 C 228.046875 254.378906 268.128906 239.597656 268.128906 239.597656 L 331.164062 239.199219 C 327.484375 250.332031 324.464844 259.351562 323.21875 262.75 C 319.164062 273.832031 310.671875 280.484375 296.65625 280.484375 C 282.636719 280.484375 285.21875 280.484375 273.789062 280.484375 C 266.550781 280.484375 262.71875 284.03125 260.878906 286.644531 C 241.308594 286.644531 234.199219 286.644531 234.199219 286.644531 Z M 234.199219 286.644531 " fill-opacity="1" fill-rule="nonzero"/><path fill="#762bf5" d="M 150.222656 342.925781 L 167.378906 353.824219 L 154.101562 370.449219 C 154.101562 370.449219 146.351562 373.21875 142.847656 372.109375 C 139.34375 371 135.472656 358.25 135.472656 358.25 C 135.472656 358.25 138.609375 356.21875 141.375 353.082031 C 144.128906 349.945312 150.222656 342.925781 150.222656 342.925781 Z M 229.710938 315.035156 L 258.480469 340.15625 L 262.726562 334.246094 L 234.324219 309.859375 Z M 317.8125 179.007812 C 291.75 145.757812 269.367188 138.863281 263.222656 136.644531 C 257.074219 134.425781 248.464844 145.265625 244.777344 154.128906 C 241.089844 163 231.742188 184.175781 231.742188 184.175781 C 231.742188 184.175781 249.695312 193.539062 260.269531 204.621094 C 270.839844 215.703125 266.171875 239.347656 266.171875 239.347656 L 331.121094 239.347656 C 333.730469 231.46875 336.671875 222.507812 339.550781 213.726562 C 334.859375 203.902344 327.933594 191.925781 317.8125 179.007812 Z M 317.8125 179.007812 " fill-opacity="1" fill-rule="nonzero"/><path fill="#ff65cf" d="M 264.015625 199.394531 C 264.015625 199.394531 238.933594 228.949219 231.742188 236.710938 C 224.550781 244.472656 208.683594 242.992188 202.597656 230.617188 C 196.515625 218.242188 178.25 178.523438 177.519531 173.535156 C 176.777344 168.550781 175.304688 164.855469 175.304688 158.570312 C 175.304688 152.292969 176.042969 148.40625 180.097656 146.566406 C 184.152344 144.714844 189.503906 145.273438 192.644531 147.117188 C 195.78125 148.964844 199.09375 151.367188 199.09375 155.988281 C 199.09375 160.605469 195.40625 160.238281 195.40625 160.238281 C 195.40625 160.238281 193.191406 170.953125 194.117188 173.910156 C 195.039062 176.871094 219.9375 212.339844 219.9375 212.339844 L 238.195312 187.035156 Z M 206.84375 121.988281 C 207.769531 121.988281 211.824219 122.726562 211.824219 122.726562 C 211.824219 122.726562 214.585938 133.441406 221.046875 136.585938 C 227.496094 139.726562 236.539062 136.402344 236.539062 136.402344 L 246.773438 150.015625 C 250.113281 143.9375 255.136719 138.003906 259.667969 136.652344 L 244.652344 124.953125 C 244.652344 124.953125 250.1875 108.144531 247.601562 101.308594 C 245.019531 94.472656 239.667969 88.742188 225.464844 89.484375 C 211.265625 90.226562 210.160156 102.96875 210.898438 107.21875 C 211.640625 111.472656 209.976562 115.164062 208.316406 116.824219 C 206.652344 118.476562 205.921875 121.988281 206.84375 121.988281 Z M 150.222656 342.925781 L 167.378906 353.824219 L 197.445312 327.777344 L 175.128906 313.917969 Z M 150.222656 342.925781 " fill-opacity="1" fill-rule="nonzero"/><g clip-path="url(#358ba3c367)"><path fill="#242933" d="M 140.414062 123.292969 L 75.675781 104.816406 C 75.507812 104.773438 75.324219 104.804688 75.183594 104.90625 C 75.046875 105.007812 74.964844 105.179688 74.964844 105.355469 L 74.964844 183.128906 C 74.964844 183.4375 75.214844 183.683594 75.523438 183.683594 L 140.257812 183.683594 C 140.566406 183.683594 140.816406 183.4375 140.816406 183.128906 L 140.816406 123.835938 C 140.816406 123.585938 140.65625 123.367188 140.414062 123.292969 Z M 139.703125 182.578125 L 76.078125 182.578125 L 76.078125 139.207031 L 87.332031 140.066406 C 87.332031 140.109375 87.328125 140.148438 87.328125 140.191406 C 87.328125 142.078125 88.316406 143.605469 89.539062 143.605469 C 90.214844 143.605469 90.808594 143.136719 91.210938 142.410156 C 99.4375 156.316406 103.351562 162.574219 105.308594 165.355469 C 105.140625 165.839844 105.03125 166.382812 105.03125 166.972656 C 105.03125 168.859375 106.023438 170.386719 107.246094 170.386719 C 108.46875 170.386719 109.460938 168.859375 109.460938 166.972656 C 109.460938 166.488281 109.394531 166.023438 109.277344 165.605469 C 111.953125 162.558594 117.0625 156.308594 121.902344 150.332031 C 122.304688 150.964844 122.863281 151.367188 123.484375 151.367188 C 124.363281 151.367188 125.121094 150.566406 125.472656 149.421875 C 131.082031 152.929688 131.410156 152.46875 131.695312 152.050781 C 132.019531 151.558594 137.335938 139.117188 139.710938 133.539062 L 139.710938 182.578125 Z M 139.703125 130.8125 C 139.644531 130.863281 139.59375 130.929688 139.5625 131.003906 C 136.433594 138.363281 131.769531 149.261719 130.890625 151.15625 C 130.089844 150.875 127.933594 149.628906 125.675781 148.21875 C 125.683594 148.121094 125.691406 148.035156 125.691406 147.945312 C 125.691406 146.058594 124.703125 144.53125 123.476562 144.53125 C 122.253906 144.53125 121.265625 146.058594 121.265625 147.945312 C 121.265625 148.371094 121.324219 148.773438 121.410156 149.148438 C 116.988281 154.613281 111.542969 161.28125 108.777344 164.519531 C 108.382812 163.925781 107.839844 163.558594 107.246094 163.558594 C 106.734375 163.558594 106.261719 163.835938 105.890625 164.292969 C 102.882812 159.738281 96.496094 149.140625 91.679688 141.007812 C 91.726562 140.742188 91.753906 140.46875 91.753906 140.191406 C 91.753906 138.304688 90.765625 136.777344 89.539062 136.777344 C 88.601562 136.777344 87.804688 137.6875 87.480469 138.957031 L 76.078125 138.089844 L 76.078125 106.101562 L 139.703125 124.257812 Z M 273.378906 295.605469 L 261.792969 303.21875 L 265.128906 289.105469 L 275.1875 289.105469 Z M 193.074219 154.804688 C 190.539062 155.046875 188.082031 155.171875 188.0625 155.171875 C 187.855469 155.179688 187.671875 155.304688 187.585938 155.496094 L 183.53125 164.117188 C 183.398438 164.394531 183.515625 164.726562 183.792969 164.855469 C 183.867188 164.894531 183.957031 164.910156 184.027344 164.910156 C 184.242188 164.910156 184.4375 164.792969 184.535156 164.585938 L 187.167969 158.996094 C 187.628906 159.09375 189.601562 159.480469 191.632812 159.480469 C 193.148438 159.480469 194.695312 159.261719 195.65625 158.542969 C 196.257812 158.09375 196.585938 157.492188 196.640625 156.75 C 196.886719 153.101562 195.4375 149.171875 195.378906 149.003906 C 195.269531 148.714844 194.945312 148.570312 194.660156 148.671875 C 194.375 148.78125 194.226562 149.105469 194.328125 149.390625 C 194.34375 149.429688 195.757812 153.269531 195.523438 156.667969 C 195.496094 157.082031 195.328125 157.390625 194.988281 157.640625 C 194.132812 158.285156 192.429688 158.402344 190.804688 158.320312 C 190.839844 158.285156 190.882812 158.261719 190.90625 158.21875 L 192.1875 156 C 192.511719 155.972656 192.847656 155.941406 193.179688 155.914062 C 194.695312 155.765625 195.1875 154.730469 195.144531 153.804688 C 195.085938 152.617188 194.140625 151.226562 193.003906 151.226562 L 192.328125 151.21875 C 192.152344 151.21875 191.960938 151.214844 191.757812 151.214844 C 191.835938 151.089844 191.867188 150.925781 191.824219 150.773438 L 190.714844 146.710938 C 190.632812 146.410156 190.328125 146.242188 190.035156 146.324219 C 189.734375 146.402344 189.558594 146.710938 189.644531 147.003906 L 190.75 151.066406 C 190.765625 151.125 190.816406 151.160156 190.847656 151.214844 C 189.929688 151.21875 188.847656 151.25 187.652344 151.359375 C 187.664062 151.265625 187.65625 151.160156 187.621094 151.066406 L 185.40625 146.015625 C 185.28125 145.734375 184.953125 145.601562 184.675781 145.726562 C 184.394531 145.851562 184.261719 146.183594 184.386719 146.460938 L 186.582031 151.46875 C 186.28125 151.507812 185.980469 151.542969 185.671875 151.59375 C 182.410156 152.09375 179.34375 153.804688 179.210938 153.878906 C 178.941406 154.03125 178.84375 154.371094 179 154.644531 C 179.152344 154.914062 179.492188 155.007812 179.761719 154.855469 C 179.792969 154.839844 182.789062 153.175781 185.847656 152.703125 C 188.53125 152.292969 190.90625 152.320312 192.328125 152.335938 L 193.015625 152.34375 C 193.414062 152.34375 194.007812 153.109375 194.042969 153.855469 C 194.066406 154.445312 193.757812 154.738281 193.074219 154.804688 Z M 189.945312 157.667969 C 189.828125 157.867188 189.851562 158.101562 189.980469 158.277344 C 189.082031 158.195312 188.25 158.070312 187.664062 157.960938 L 188.457031 156.273438 C 188.910156 156.25 189.792969 156.191406 190.847656 156.117188 Z M 304.777344 164.117188 C 304.777344 138.847656 304.777344 110.039062 304.777344 110.039062 L 250.0625 110.039062 C 250.203125 108.113281 250.160156 106.050781 249.820312 103.878906 C 249.820312 103.878906 251.851562 106.464844 258.121094 105.730469 C 264.390625 104.988281 265.128906 100.925781 267.527344 99.632812 C 269.925781 98.339844 273.429688 97.78125 274.71875 92.0625 C 276.011719 86.34375 269.742188 81.53125 269.925781 79.316406 C 270.109375 77.097656 270.476562 66.566406 266.054688 64.164062 C 261.625 61.765625 256.464844 66.933594 252.402344 64.714844 C 248.347656 62.5 240.597656 62.316406 238.019531 67.484375 C 235.4375 72.652344 238.382812 71.917969 235.621094 76.722656 C 232.855469 81.523438 239.867188 89.285156 239.867188 89.285156 C 239.867188 89.285156 220.871094 83.742188 213.304688 95.566406 C 213.304688 95.566406 213.488281 101.109375 216.625 103.511719 C 218.941406 105.289062 221.464844 104.238281 223.671875 104.765625 L 211.234375 112.96875 L 210.65625 111.941406 L 210.789062 111.941406 C 210.921875 111.339844 211.015625 110.699219 211.058594 110.039062 L 209.59375 110.039062 L 209.375 109.644531 C 209.21875 109.371094 208.882812 109.277344 208.613281 109.429688 C 208.390625 109.554688 208.296875 109.804688 208.347656 110.039062 L 157.980469 110.039062 L 59.105469 80.238281 L 55.417969 80.238281 L 54.6875 201.417969 C 54.6875 201.417969 92.53125 201.640625 138.769531 201.832031 L 135.5 214.050781 C 134.960938 216.078125 135.824219 218.066406 137.394531 219.144531 L 51.730469 219.144531 L 51.730469 226.167969 L 74.328125 226.167969 L 74.328125 384.304688 L 100.339844 384.304688 L 100.339844 226.167969 L 200.453125 226.167969 C 199.460938 224.097656 198.339844 221.722656 197.136719 219.144531 L 176.9375 219.144531 L 176.933594 217.839844 L 167.34375 217.882812 C 164.351562 217.898438 162.152344 215.078125 162.886719 212.171875 L 165.472656 201.933594 C 173.367188 201.964844 181.34375 201.984375 189.261719 202.007812 C 189.027344 201.484375 188.792969 200.964844 188.558594 200.441406 L 158.457031 200.441406 L 158.457031 111.765625 L 209.359375 111.941406 L 213.421875 119.179688 C 213.523438 119.363281 213.714844 119.46875 213.90625 119.46875 C 214 119.46875 214.089844 119.445312 214.175781 119.394531 C 214.449219 119.242188 214.542969 118.902344 214.386719 118.632812 L 211.765625 113.945312 L 213.496094 112.808594 C 213.253906 113.058594 213.105469 113.394531 213.105469 113.761719 C 213.105469 114.527344 213.722656 115.148438 214.492188 115.148438 C 215.253906 115.148438 215.875 114.535156 215.875 113.761719 C 215.875 113 215.261719 112.375 214.492188 112.375 C 214.316406 112.375 214.148438 112.410156 213.992188 112.476562 L 224.894531 105.289062 C 225.21875 105.492188 225.53125 105.75 225.832031 106.097656 C 228.414062 109.054688 230.628906 113.859375 230.628906 113.859375 L 231.734375 105.179688 C 231.734375 105.179688 234.691406 103.519531 239.292969 104.8125 C 243.898438 106.101562 244.644531 115.523438 239.292969 117.742188 C 239.292969 117.742188 244.273438 125.503906 244.644531 124.945312 C 244.925781 124.527344 248.730469 119.542969 249.835938 112.082031 L 303.054688 112.265625 L 303.054688 162.398438 C 303.628906 162.957031 304.199219 163.527344 304.777344 164.117188 Z M 58.375 200.191406 L 58.375 82.699219 L 156.492188 111.140625 L 156.492188 200.191406 Z M 277.484375 334.796875 C 277.484375 334.796875 278.40625 343.667969 273.613281 348.652344 C 268.816406 353.640625 259.226562 353.089844 259.226562 353.089844 L 254.433594 345.886719 L 267.894531 327.410156 Z M 374.0625 292.484375 L 366.453125 300.746094 L 363.226562 289.1875 C 366.070312 288.980469 370.226562 288.535156 372.917969 287.636719 Z M 267.519531 355.550781 C 265.109375 355.550781 263.152344 357.507812 263.152344 359.925781 C 263.152344 362.339844 265.109375 364.300781 267.519531 364.300781 C 269.933594 364.300781 271.890625 362.339844 271.890625 359.925781 C 271.890625 357.507812 269.933594 355.550781 267.519531 355.550781 Z M 267.519531 363.179688 C 265.722656 363.179688 264.265625 361.71875 264.265625 359.917969 C 264.265625 358.117188 265.722656 356.65625 267.519531 356.65625 C 269.316406 356.65625 270.773438 358.117188 270.773438 359.917969 C 270.773438 361.71875 269.316406 363.179688 267.519531 363.179688 Z M 211.273438 108.460938 C 211.039062 108.261719 211.007812 107.910156 211.207031 107.675781 C 211.300781 107.566406 213.546875 104.988281 217.929688 106.777344 C 218.214844 106.894531 218.355469 107.21875 218.238281 107.503906 C 218.121094 107.792969 217.796875 107.925781 217.511719 107.8125 C 213.914062 106.339844 212.136719 108.3125 212.058594 108.402344 C 211.949219 108.527344 211.792969 108.59375 211.632812 108.59375 C 211.507812 108.601562 211.382812 108.554688 211.273438 108.460938 Z M 126.367188 361.210938 C 123.953125 361.210938 121.996094 363.171875 121.996094 365.585938 C 121.996094 368.003906 123.953125 369.964844 126.367188 369.964844 C 128.777344 369.964844 130.734375 368.003906 130.734375 365.585938 C 130.734375 363.171875 128.777344 361.210938 126.367188 361.210938 Z M 126.367188 368.847656 C 124.570312 368.847656 123.113281 367.386719 123.113281 365.585938 C 123.113281 363.789062 124.570312 362.328125 126.367188 362.328125 C 128.164062 362.328125 129.621094 363.789062 129.621094 365.585938 C 129.621094 367.386719 128.164062 368.847656 126.367188 368.847656 Z M 339.25 258.824219 C 335.394531 274.265625 328.269531 281.691406 322.976562 285.199219 C 318.503906 288.167969 314.609375 288.914062 312.984375 289.105469 L 313.980469 289.105469 L 315.738281 296.539062 L 307.507812 301.949219 L 303.921875 289.105469 L 311.90625 289.105469 C 311.730469 289.019531 311.605469 288.84375 311.597656 288.628906 C 311.589844 288.320312 311.839844 288.0625 312.148438 288.054688 C 312.335938 288.050781 330.996094 287.308594 338.175781 258.550781 C 338.246094 258.25 338.546875 258.074219 338.847656 258.148438 C 339.148438 258.21875 339.332031 258.527344 339.25 258.824219 Z M 299.183594 240.421875 C 299.164062 240.558594 297.035156 254.609375 285.761719 258.117188 C 274.667969 261.578125 242.144531 270.269531 232.367188 272.65625 L 231.582031 272.847656 C 221.777344 275.234375 212.527344 277.488281 211.148438 286.242188 C 210.0625 293.109375 216.148438 299.410156 219.050781 301.972656 L 230.644531 290.464844 C 230.644531 290.464844 237.285156 299.335938 235.996094 308.941406 L 228.0625 316.703125 C 228.0625 316.703125 222.078125 319.625 214.140625 315.433594 L 215.277344 316.210938 C 215.277344 316.210938 210.195312 321.710938 206.367188 325.765625 C 203.222656 317.5625 194.132812 298.46875 194.132812 298.46875 C 194.132812 298.46875 198.433594 304.871094 209.074219 311.894531 L 218.257812 302.773438 C 215.171875 300.0625 208.890625 293.511719 210.0625 286.066406 C 211.558594 276.578125 221.609375 274.132812 231.332031 271.761719 L 232.117188 271.570312 C 241.890625 269.183594 274.367188 260.496094 285.445312 257.046875 C 296.039062 253.742188 298.070312 240.390625 298.09375 240.257812 C 298.136719 239.949219 298.421875 239.746094 298.722656 239.78125 C 299.015625 239.832031 299.230469 240.113281 299.183594 240.421875 Z M 194.8125 167.359375 C 194.84375 167.359375 194.871094 167.359375 194.902344 167.355469 C 205.136719 165.703125 212.5625 156.957031 212.5625 146.558594 C 212.5625 134.941406 203.128906 125.488281 191.527344 125.488281 C 179.929688 125.488281 170.503906 134.941406 170.503906 146.558594 C 170.503906 150.890625 171.808594 155.046875 174.269531 158.585938 C 174.445312 158.835938 174.792969 158.902344 175.046875 158.726562 C 175.304688 158.550781 175.363281 158.195312 175.1875 157.945312 C 172.855469 154.597656 171.625 150.65625 171.625 146.558594 C 171.625 138.640625 176.265625 131.8125 182.949219 128.589844 L 191.03125 145.867188 C 191.109375 146.042969 191.273438 146.160156 191.464844 146.183594 C 191.484375 146.183594 191.507812 146.191406 191.535156 146.191406 C 191.703125 146.191406 191.859375 146.117188 191.96875 145.984375 L 204.199219 131.164062 C 208.625 134.832031 211.457031 140.367188 211.457031 146.550781 C 211.457031 156.398438 204.425781 164.679688 194.734375 166.246094 C 194.425781 166.296875 194.21875 166.582031 194.269531 166.882812 C 194.308594 167.164062 194.542969 167.359375 194.8125 167.359375 Z M 191.667969 144.597656 L 183.964844 128.117188 C 186.300781 127.148438 188.859375 126.613281 191.535156 126.613281 C 195.941406 126.613281 199.996094 128.066406 203.296875 130.503906 Z M 286.023438 187.277344 C 286.222656 187.511719 286.1875 187.863281 285.953125 188.0625 L 268.988281 202.101562 C 268.882812 202.191406 268.757812 202.226562 268.632812 202.226562 C 268.546875 202.226562 268.453125 202.207031 268.371094 202.160156 L 264.683594 200.191406 C 264.410156 200.046875 264.308594 199.707031 264.457031 199.4375 C 264.601562 199.164062 264.941406 199.0625 265.210938 199.210938 L 268.570312 201 L 285.246094 187.203125 C 285.476562 187.003906 285.828125 187.035156 286.023438 187.277344 Z M 258.40625 205.980469 C 257.914062 202.324219 256.121094 198.152344 254.351562 194.757812 L 264.015625 199.394531 C 264.015625 199.394531 261.757812 202.050781 258.40625 205.980469 Z M 211.660156 200.4375 L 228.507812 200.4375 L 227.328125 202.074219 C 222.578125 202.066406 217.71875 202.066406 212.777344 202.050781 C 212.417969 201.523438 212.042969 200.988281 211.660156 200.4375 Z M 289.589844 149.699219 L 289.589844 131.90625 L 253.261719 131.90625 C 252.953125 131.90625 252.703125 131.65625 252.703125 131.347656 C 252.703125 131.042969 252.953125 130.792969 253.261719 130.792969 L 289.589844 130.792969 L 289.589844 128.757812 C 289.589844 127.980469 288.957031 127.347656 288.179688 127.347656 L 247.476562 127.347656 C 247.167969 127.347656 246.917969 127.097656 246.917969 126.789062 C 246.917969 126.480469 247.167969 126.230469 247.476562 126.230469 L 288.179688 126.230469 C 289.574219 126.230469 290.703125 127.363281 290.703125 128.757812 L 290.703125 149.699219 C 290.703125 150.007812 290.453125 150.257812 290.144531 150.257812 C 289.835938 150.257812 289.589844 150.007812 289.589844 149.699219 Z M 236.449219 136.429688 C 237.960938 134.976562 240.136719 132.796875 240.136719 132.796875 L 239.617188 140.484375 L 236.542969 136.394531 C 236.539062 136.394531 236.5 136.410156 236.449219 136.429688 Z M 238.0625 106.601562 C 238.128906 106.902344 237.929688 107.199219 237.628906 107.261719 C 237.519531 107.285156 235.464844 107.769531 235.160156 110.0625 C 235.664062 110.082031 236.347656 110.222656 236.84375 110.742188 C 237.484375 111.40625 237.644531 112.457031 237.3125 113.863281 C 237.253906 114.121094 237.019531 114.296875 236.773438 114.296875 C 236.726562 114.296875 236.691406 114.289062 236.648438 114.285156 C 236.347656 114.210938 236.164062 113.910156 236.230469 113.617188 C 236.390625 112.917969 236.492188 111.992188 236.046875 111.53125 C 235.65625 111.125 234.917969 111.164062 234.667969 111.214844 C 234.507812 111.242188 234.332031 111.199219 234.207031 111.097656 C 234.082031 110.992188 234 110.832031 234 110.664062 C 234 107.675781 236.222656 106.417969 237.394531 106.175781 C 237.703125 106.101562 238.003906 106.300781 238.0625 106.601562 Z M 220.363281 122.464844 C 219.25 125.402344 215.757812 126.113281 215.613281 126.144531 C 215.578125 126.152344 215.539062 126.152344 215.503906 126.152344 C 215.238281 126.152344 215.011719 125.96875 214.953125 125.695312 C 214.894531 125.394531 215.09375 125.101562 215.394531 125.042969 C 215.421875 125.035156 218.421875 124.417969 219.316406 122.066406 C 219.425781 121.78125 219.746094 121.632812 220.035156 121.746094 C 220.335938 121.847656 220.472656 122.171875 220.363281 122.464844 Z M 220.429688 167.117188 L 238.136719 167.117188 C 238.441406 167.117188 238.691406 167.367188 238.691406 167.675781 C 238.691406 167.984375 238.441406 168.234375 238.136719 168.234375 L 220.429688 168.234375 C 219.101562 168.234375 218.023438 167.15625 218.023438 165.828125 L 218.023438 135.777344 C 218.023438 135.46875 218.273438 135.21875 218.582031 135.21875 C 218.890625 135.21875 219.140625 135.46875 219.140625 135.777344 L 219.140625 165.828125 C 219.140625 166.539062 219.71875 167.117188 220.429688 167.117188 Z M 241.066406 226.167969 C 243.019531 223.925781 245.078125 221.539062 247.132812 219.144531 L 266.589844 219.144531 C 266.964844 221.53125 267.132812 223.914062 267.183594 226.167969 Z M 241.066406 226.167969 " fill-opacity="1" fill-rule="nonzero"/></g></svg>